<?xml version="1.0" encoding="UTF-8"?>
<svg version="1.1" xmlns="http://www.w3.org/2000/svg" width="322" height="312">
<path d="M0 0 C106.26 0 212.52 0 322 0 C322 102.96 322 205.92 322 312 C215.74 312 109.48 312 0 312 C0 209.04 0 106.08 0 0 Z " fill="#FBED88" transform="translate(0,0)"/>
<path d="M0 0 C0.7147348 -0.00139984 1.4294696 -0.00279968 2.16586304 -0.00424194 C13.92569399 0.01460053 24.63918227 1.22820603 35.6875 5.4375 C37.46640625 6.10072266 37.46640625 6.10072266 39.28125 6.77734375 C44.20498199 8.74325131 48.99905762 10.9630443 53.6875 13.4375 C53.6875 14.0975 53.6875 14.7575 53.6875 15.4375 C54.38101563 15.68113281 55.07453125 15.92476562 55.7890625 16.17578125 C63.80588527 19.66558415 71.4438264 25.58756753 77.3203125 32.02734375 C78.8334207 33.68735828 78.8334207 33.68735828 81.6875 35.4375 C82.375 37.5625 82.375 37.5625 82.6875 39.4375 C73.64005761 45.23082142 64.93858802 49.9690445 54.75 53.4375 C54.069375 53.7675 53.38875 54.0975 52.6875 54.4375 C52.3575 55.4275 52.0275 56.4175 51.6875 57.4375 C50.036443 58.15351962 48.38133533 58.86165171 46.70703125 59.52148438 C42.99985433 61.20297951 39.89265594 63.70635325 36.6875 66.1875 C35.95418457 66.75388184 35.22086914 67.32026367 34.46533203 67.90380859 C14.76509183 83.45127715 2.80541336 99.00189098 -0.3125 124.4375 C1.3375 124.4375 2.9875 124.4375 4.6875 124.4375 C4.6875 125.4275 4.6875 126.4175 4.6875 127.4375 C-6.8625 127.4375 -18.4125 127.4375 -30.3125 127.4375 C-28.25329582 137.88741343 -28.25329582 137.88741343 -25.8125 148.25 C-21.47615141 165.59539438 -21.04110156 181.52520319 -21.3125 199.4375 C-8.7725 199.4375 3.7675 199.4375 16.6875 199.4375 C16.625625 195.291875 16.56375 191.14625 16.5 186.875 C16.43541928 176.58636838 17.07502497 167.41123472 19.6875 157.4375 C20.05369379 155.60653106 20.40902084 153.77333179 20.75 151.9375 C21.85014051 146.46407368 23.18142691 141.44964617 25.6875 136.4375 C26.15438475 134.80340339 26.61971961 133.1688347 27.07421875 131.53125 C34.11794822 107.48386785 34.11794822 107.48386785 41.6875 102.4375 C42.0278125 101.3546875 42.0278125 101.3546875 42.375 100.25 C47.71842281 88.79980827 63.85002607 83.25550353 74.6875 78.4375 C75.48027344 78.07140625 76.27304688 77.7053125 77.08984375 77.328125 C80.84256041 76.04147929 84.6499721 75.4821164 88.5625 74.875 C89.72845703 74.68647461 89.72845703 74.68647461 90.91796875 74.49414062 C95.50102185 73.75854135 100.09068707 73.08105381 104.6875 72.4375 C107.52124078 78.10498157 108.31973832 83.13482561 108.6875 89.4375 C106.64678485 89.77660994 104.60487379 90.10852704 102.5625 90.4375 C101.42554688 90.623125 100.28859375 90.80875 99.1171875 91 C95.92612398 91.40706049 92.89932209 91.51559902 89.6875 91.4375 C89.6875 92.0975 89.6875 92.7575 89.6875 93.4375 C86.7175 93.9325 86.7175 93.9325 83.6875 94.4375 C84.0896875 96.2628125 84.0896875 96.2628125 84.5 98.125 C84.67917969 98.96289062 84.85835937 99.80078125 85.04296875 100.6640625 C85.46635714 102.48591556 85.94695007 104.29558366 86.48828125 106.0859375 C93.46316496 130.7459529 86.5207989 155.9376033 78.6875 179.4375 C78.0275 179.7675 77.3675 180.0975 76.6875 180.4375 C75.96056096 182.41638961 75.28933749 184.41704558 74.6875 186.4375 C74.0275 186.4375 73.3675 186.4375 72.6875 186.4375 C72.45417969 187.29601562 72.22085938 188.15453125 71.98046875 189.0390625 C70.53749297 192.8317783 68.51474598 195.68708347 66 198.8125 C65.55156738 199.37831787 65.10313477 199.94413574 64.64111328 200.52709961 C63.74298305 201.65402313 62.84041154 202.77742354 61.93310547 203.89697266 C60.85879421 205.22564848 59.80439153 206.57037652 58.75390625 207.91796875 C58.19574219 208.60503906 57.63757813 209.29210937 57.0625 210 C56.36253906 210.86818359 56.36253906 210.86818359 55.6484375 211.75390625 C53.6875 213.4375 53.6875 213.4375 45.6875 217.4375 C45.3575 223.7075 45.0275 229.9775 44.6875 236.4375 C56.2375 236.4375 67.7875 236.4375 79.6875 236.4375 C79.6875 237.4275 79.6875 238.4175 79.6875 239.4375 C68.1375 239.4375 56.5875 239.4375 44.6875 239.4375 C44.6875 241.7475 44.6875 244.0575 44.6875 246.4375 C45.38875 246.375625 46.09 246.31375 46.8125 246.25 C51.29633065 246.54242374 54.33314181 248.58211588 58.0625 250.9375 C60.78285534 255.12266206 60.410694 259.60684491 59.6875 264.4375 C57.75 267.8125 57.75 267.8125 55.6875 270.4375 C54.28453306 274.08521403 54.63875718 275.30287697 56 279.0625 C57.60739423 282.45171231 57.60739423 282.45171231 59.6875 285.4375 C59.6875 286.4275 59.6875 287.4175 59.6875 288.4375 C50.70687407 289.05448957 50.70687407 289.05448957 47.3125 287 C41.6875 278.12980769 41.6875 278.12980769 41.6875 273.4375 C40.6975 273.4375 39.7075 273.4375 38.6875 273.4375 C38.6875 278.3875 38.6875 283.3375 38.6875 288.4375 C34.3975 288.4375 30.1075 288.4375 25.6875 288.4375 C25.6875 284.4775 25.6875 280.5175 25.6875 276.4375 C23.7075 276.4375 21.7275 276.4375 19.6875 276.4375 C20.0175 277.46875 20.3475 278.5 20.6875 279.5625 C21.84145015 283.16859421 21.6875 285.29156376 21.6875 289.4375 C17.0675 289.4375 12.4475 289.4375 7.6875 289.4375 C7.6875 293.3975 7.6875 297.3575 7.6875 301.4375 C6.6975 301.4375 5.7075 301.4375 4.6875 301.4375 C4.6875 294.5075 4.6875 287.5775 4.6875 280.4375 C2.0475 280.4375 -0.5925 280.4375 -3.3125 280.4375 C-3.456875 281.200625 -3.60125 281.96375 -3.75 282.75 C-4.3125 285.4375 -4.3125 285.4375 -5.3125 288.4375 C-9.6025 288.4375 -13.8925 288.4375 -18.3125 288.4375 C-18.3125 287.1175 -18.3125 285.7975 -18.3125 284.4375 C-17.6525 284.4375 -16.9925 284.4375 -16.3125 284.4375 C-16.08820313 283.27347656 -15.86390625 282.10945313 -15.6328125 280.91015625 C-14.03843791 273.73547062 -11.54770008 266.82502549 -9.1875 259.875 C-8.71442249 258.47084498 -8.24176287 257.0665491 -7.76953125 255.66210938 C-6.62199994 252.25226903 -5.46882848 248.84436863 -4.3125 245.4375 C-1.3425 245.4375 1.6275 245.4375 4.6875 245.4375 C4.6875 243.4575 4.6875 241.4775 4.6875 239.4375 C-6.8625 239.4375 -18.4125 239.4375 -30.3125 239.4375 C-30.3125 241.4175 -30.3125 243.3975 -30.3125 245.4375 C-28.8584375 245.4065625 -28.8584375 245.4065625 -27.375 245.375 C-24.3125 245.4375 -24.3125 245.4375 -23.3125 246.4375 C-23.17056663 249.44081018 -23.27013622 252.42967134 -23.3125 255.4375 C-27.9325 255.4375 -32.5525 255.4375 -37.3125 255.4375 C-37.3125 258.0775 -37.3125 260.7175 -37.3125 263.4375 C-33.3525 263.4375 -29.3925 263.4375 -25.3125 263.4375 C-25.3125 266.4075 -25.3125 269.3775 -25.3125 272.4375 C-28.9425 272.4375 -32.5725 272.4375 -36.3125 272.4375 C-36.3125 274.7475 -36.3125 277.0575 -36.3125 279.4375 C-32.3525 279.4375 -28.3925 279.4375 -24.3125 279.4375 C-24.3125 282.4075 -24.3125 285.3775 -24.3125 288.4375 C-32.2325 288.4375 -40.1525 288.4375 -48.3125 288.4375 C-48.3125 274.2475 -48.3125 260.0575 -48.3125 245.4375 C-43.0325 245.4375 -37.7525 245.4375 -32.3125 245.4375 C-32.8075 240.9825 -32.8075 240.9825 -33.3125 236.4375 C-44.5325 236.4375 -55.7525 236.4375 -67.3125 236.4375 C-68.66950647 233.72348706 -68.4248861 231.58903684 -68.41015625 228.5546875 C-68.40693359 227.38808594 -68.40371094 226.22148437 -68.40039062 225.01953125 C-68.38782227 223.18455078 -68.38782227 223.18455078 -68.375 221.3125 C-68.37048828 220.08144531 -68.36597656 218.85039062 -68.36132812 217.58203125 C-68.3495133 214.53380608 -68.33304028 211.48567686 -68.3125 208.4375 C-66.0025 208.7675 -63.6925 209.0975 -61.3125 209.4375 C-61.8178125 208.89480469 -62.323125 208.35210937 -62.84375 207.79296875 C-63.81828125 206.71982422 -63.81828125 206.71982422 -64.8125 205.625 C-65.4621875 204.91730469 -66.111875 204.20960938 -66.78125 203.48046875 C-68.3125 201.4375 -68.3125 201.4375 -68.3125 198.4375 C-69.3025 198.1075 -70.2925 197.7775 -71.3125 197.4375 C-75.3125 192.06607143 -75.3125 192.06607143 -75.3125 189.4375 C-75.9725 189.4375 -76.6325 189.4375 -77.3125 189.4375 C-81.6595899 180.33371598 -85.22774627 171.15015204 -88.1875 161.5 C-88.485354 160.542146 -88.78320801 159.58429199 -89.09008789 158.59741211 C-92.13489387 148.39877295 -92.515272 138.73358838 -92.5625 128.125 C-92.5934375 126.40506836 -92.5934375 126.40506836 -92.625 124.65039062 C-92.67097169 114.49639316 -91.16171053 105.4431767 -86.3125 96.4375 C-86.3125 95.4475 -86.3125 94.4575 -86.3125 93.4375 C-89.3327423 92.78879661 -92.35363979 92.14345844 -95.375 91.5 C-96.22255859 91.31759766 -97.07011719 91.13519531 -97.94335938 90.94726562 C-102.72167576 89.93256523 -107.46740384 89.0620375 -112.3125 88.4375 C-111.72234815 82.92941603 -110.74586231 77.78871931 -109.3125 72.4375 C-97.89883877 73.57886612 -87.11221435 76.35082251 -76.25 79.9375 C-75.34548096 80.23414551 -74.44096191 80.53079102 -73.5090332 80.83642578 C-72.64882568 81.12759277 -71.78861816 81.41875977 -70.90234375 81.71875 C-69.75560181 82.10643555 -69.75560181 82.10643555 -68.58569336 82.50195312 C-66.3125 83.4375 -66.3125 83.4375 -63.95263672 85.01293945 C-60.64202196 86.79927542 -58.23003504 86.86662918 -54.48046875 86.94921875 C-52.54204102 87.00239258 -52.54204102 87.00239258 -50.56445312 87.05664062 C-49.20964066 87.07973681 -47.85482282 87.10251935 -46.5 87.125 C-45.12561883 87.15819761 -43.75126829 87.19268953 -42.37695312 87.22851562 C-39.02221766 87.31091264 -35.66774096 87.38009395 -32.3125 87.4375 C-32.4282214 85.3288198 -32.55699663 83.22085277 -32.69140625 81.11328125 C-32.76174072 79.93934814 -32.8320752 78.76541504 -32.90454102 77.5559082 C-33.08897608 74.30475028 -33.08897608 74.30475028 -35.25 71.625 C-36.260625 70.903125 -37.27125 70.18125 -38.3125 69.4375 C-40.04441374 68.02419303 -41.77335614 66.6072404 -43.5 65.1875 C-46.74563745 62.55984425 -46.74563745 62.55984425 -50.3125 60.4375 C-50.3125 59.7775 -50.3125 59.1175 -50.3125 58.4375 C-51.03695312 58.16808594 -51.76140625 57.89867187 -52.5078125 57.62109375 C-55.26980602 56.4555171 -57.65160796 55.09202168 -60.1875 53.5 C-64.12630454 51.09360018 -68.03106147 49.18178977 -72.3125 47.4375 C-73.62972698 46.78022244 -74.9420552 46.11305984 -76.25 45.4375 C-80.17278403 43.44156292 -84.16910436 41.91728416 -88.3125 40.4375 C-87.41161179 33.56230048 -79.88994944 28.43913627 -74.7421875 24.44140625 C-72.29684773 22.72046964 -69.8174703 21.0701324 -67.3125 19.4375 C-66.52617188 18.8909375 -65.73984375 18.344375 -64.9296875 17.78125 C-60.52727536 14.73687008 -56.31040854 12.41942925 -51.3125 10.4375 C-49.49716433 9.6103621 -47.6848955 8.77647494 -45.875 7.9375 C-44.02122294 7.10330032 -42.1670879 6.26989545 -40.3125 5.4375 C-39.36117187 4.98310547 -39.36117187 4.98310547 -38.390625 4.51953125 C-26.90891212 -0.48466662 -12.36478558 -0.00235158 0 0 Z " fill="#F0E282" transform="translate(163.3125,10.5625)"/>
<path d="M0 0 C9.08923201 0.5737389 18.00200434 1.61050442 27 3 C27.84269359 5.38852642 28.13369301 6.61369367 27.29296875 9.04296875 C26.92816406 9.75066406 26.56335938 10.45835938 26.1875 11.1875 C21.74259856 19.83660424 21.68629218 28.7722546 21.75 38.3125 C21.74226563 39.45912109 21.73453125 40.60574219 21.7265625 41.78710938 C21.75176529 52.92044131 23.47840836 63.25359003 26.75 73.875 C27.0073291 74.72562012 27.2646582 75.57624023 27.52978516 76.45263672 C29.56292649 82.9953865 32.04306378 89.22206207 34.8984375 95.4453125 C36 98 36 98 36 100 C36.66 100 37.32 100 38 100 C39.21875 101.71484375 39.21875 101.71484375 40.5 103.9375 C42.18454879 107.05432026 42.18454879 107.05432026 45 109 C45.98487398 110.70711489 46.96632906 112.41652103 47.9140625 114.14453125 C49.37122178 116.63428181 51.13684451 118.80413817 53 121 C50.23723823 120.47731534 47.6739124 119.89130413 45 119 C45.495 132.86 45.495 132.86 46 147 C57.22 147 68.44 147 80 147 C80 141.06 80 135.12 80 129 C80.33 129 80.66 129 81 129 C81 137.91 81 146.82 81 156 C75.72 156 70.44 156 65 156 C65 170.19 65 184.38 65 199 C72.92 199 80.84 199 89 199 C89 196.03 89 193.06 89 190 C85.04 190 81.08 190 77 190 C77 187.69 77 185.38 77 183 C80.63 183 84.26 183 88 183 C88 180.03 88 177.06 88 174 C84.04 174 80.08 174 76 174 C76 171.36 76 168.72 76 166 C80.62 166 85.24 166 90 166 C89.67 163.03 89.34 160.06 89 157 C87.02 156.67 85.04 156.34 83 156 C83 154.02 83 152.04 83 150 C94.55 150 106.1 150 118 150 C118 151.98 118 153.96 118 156 C115.03 156 112.06 156 109 156 C108.88664307 156.99652588 108.77328613 157.99305176 108.65649414 159.01977539 C108.07467438 163.06964495 106.86031982 166.83727506 105.49609375 170.68359375 C105.2533522 171.38396255 105.01061066 172.08433136 104.76051331 172.80592346 C103.99211275 175.01857023 103.21497404 177.22802727 102.4375 179.4375 C101.91152622 180.94706256 101.38612993 182.45682647 100.86132812 183.96679688 C99.58088127 187.64689197 98.29259439 191.32415492 97 195 C96.34 195 95.68 195 95 195 C95 196.32 95 197.64 95 199 C99.29 199 103.58 199 108 199 C108.33 197.35 108.66 195.7 109 194 C109.33 193.01 109.66 192.02 110 191 C112.64 191 115.28 191 118 191 C118 197.93 118 204.86 118 212 C62.56 212 7.12 212 -50 212 C-50 166.13 -50 120.26 -50 73 C-44.06 73 -38.12 73 -32 73 C-32.19354035 65.4519263 -33.41173403 59.23021249 -35.9375 52.1875 C-39.68306387 41.66889284 -41.45787563 31.21795283 -41 20 C-32.02243049 18.6699897 -23.05168034 18.91211961 -14 19 C-13.99589111 19.72888428 -13.99178223 20.45776855 -13.98754883 21.20874023 C-13.84356925 35.83360986 -13.51535192 49.34091183 -8 63 C-7.7014209 63.75104004 -7.4028418 64.50208008 -7.09521484 65.27587891 C-3.57087461 73.98529027 0.32225508 82.17521867 5.65234375 89.93359375 C7 92 7 92 8 95 C8.66 95 9.32 95 10 95 C10.97506169 96.41942026 11.94307637 97.8444349 12.86669922 99.29785156 C18.85636658 108.29396548 27.13664108 115.03842148 36 121 C37.33954205 121.99166772 38.6751983 122.98872445 40 124 C35.21869184 123.40872372 31.33073134 122.01770306 26.9375 120.0625 C22.97878184 118.31309903 19.03081473 116.57727533 15 115 C15 114.34 15 113.68 15 113 C12.69 112.67 10.38 112.34 8 112 C8 123.88 8 135.76 8 148 C19.55 148 31.1 148 43 148 C42.87625 142.8025 42.7525 137.605 42.625 132.25 C42.59100098 130.61579102 42.55700195 128.98158203 42.52197266 127.29785156 C42.46855713 125.36377441 42.46855713 125.36377441 42.4140625 123.390625 C42.40270264 122.72015137 42.39134277 122.04967773 42.37963867 121.35888672 C42.26914688 117.78321251 42.04967897 114.99547377 40 112 C38.67532254 111.3162955 37.34136367 110.65035814 36 110 C35.525625 109.360625 35.05125 108.72125 34.5625 108.0625 C33.09395684 105.84009749 33.09395684 105.84009749 30.5625 104.625 C27.35935313 102.59373613 26.02283129 100.16910235 24 97 C22.515 96.01 22.515 96.01 21 95 C18.12305205 90.65469879 15.74273773 85.91135178 14 81 C13.34 81 12.68 81 12 81 C7.41647442 71.12591565 3.90085543 61.24488629 1.39453125 50.65795898 C0.70937023 47.77085455 0.01020553 45.0252967 -1.1015625 42.26953125 C-2.49129482 37.21211408 -2.29336898 32.21937894 -2.25 27 C-2.24613281 25.88890869 -2.24226563 24.77781738 -2.23828125 23.63305664 C-2.15395002 15.60226423 -1.58078246 7.88979818 0 0 Z " fill="#EEE081" transform="translate(50,100)"/>
<path d="M0 0 C0.7147348 -0.00139984 1.4294696 -0.00279968 2.16586304 -0.00424194 C13.92569399 0.01460053 24.63918227 1.22820603 35.6875 5.4375 C36.8734375 5.87964844 38.059375 6.32179688 39.28125 6.77734375 C44.20498199 8.74325131 48.99905762 10.9630443 53.6875 13.4375 C53.6875 14.0975 53.6875 14.7575 53.6875 15.4375 C54.38101563 15.68113281 55.07453125 15.92476562 55.7890625 16.17578125 C63.80588527 19.66558415 71.4438264 25.58756753 77.3203125 32.02734375 C78.8334207 33.68735828 78.8334207 33.68735828 81.6875 35.4375 C82.375 37.5625 82.375 37.5625 82.6875 39.4375 C73.64005761 45.23082142 64.93858802 49.9690445 54.75 53.4375 C54.069375 53.7675 53.38875 54.0975 52.6875 54.4375 C52.3575 55.4275 52.0275 56.4175 51.6875 57.4375 C50.036443 58.15351962 48.38133533 58.86165171 46.70703125 59.52148438 C42.99985433 61.20297951 39.89265594 63.70635325 36.6875 66.1875 C35.95418457 66.75388184 35.22086914 67.32026367 34.46533203 67.90380859 C18.4392203 80.55164769 7.25039743 93.3806349 0.8515625 112.91015625 C-0.3125 116.4375 -0.3125 116.4375 -1.3125 118.4375 C-1.9725 118.4375 -2.6325 118.4375 -3.3125 118.4375 C-4.3025 114.1475 -5.2925 109.8575 -6.3125 105.4375 C-6.9725 105.4375 -7.6325 105.4375 -8.3125 105.4375 C-8.98369549 103.9812455 -9.64931807 102.52242133 -10.3125 101.0625 C-10.869375 99.84433594 -10.869375 99.84433594 -11.4375 98.6015625 C-12.3125 96.4375 -12.3125 96.4375 -12.3125 94.4375 C-12.9725 94.4375 -13.6325 94.4375 -14.3125 94.4375 C-14.57426025 93.68895752 -14.83602051 92.94041504 -15.10571289 92.16918945 C-16.32933597 89.39939002 -17.50337996 87.8603317 -19.62109375 85.73046875 C-20.28052979 85.0650708 -20.93996582 84.39967285 -21.61938477 83.71411133 C-22.32248779 83.02470459 -23.02559082 82.33529785 -23.75 81.625 C-24.46921631 80.91303467 -25.18843262 80.20106934 -25.92944336 79.4675293 C-31.37561659 74.16114179 -36.94772464 69.61372303 -43.3125 65.4375 C-45.69618488 63.81910343 -48.01234358 62.17539596 -50.3125 60.4375 C-50.3125 59.7775 -50.3125 59.1175 -50.3125 58.4375 C-51.03695312 58.16808594 -51.76140625 57.89867187 -52.5078125 57.62109375 C-55.26980602 56.4555171 -57.65160796 55.09202168 -60.1875 53.5 C-64.12630454 51.09360018 -68.03106147 49.18178977 -72.3125 47.4375 C-73.62972698 46.78022244 -74.9420552 46.11305984 -76.25 45.4375 C-80.17278403 43.44156292 -84.16910436 41.91728416 -88.3125 40.4375 C-87.41161179 33.56230048 -79.88994944 28.43913627 -74.7421875 24.44140625 C-72.29684773 22.72046964 -69.8174703 21.0701324 -67.3125 19.4375 C-66.52617188 18.8909375 -65.73984375 18.344375 -64.9296875 17.78125 C-60.52727536 14.73687008 -56.31040854 12.41942925 -51.3125 10.4375 C-49.49716433 9.6103621 -47.6848955 8.77647494 -45.875 7.9375 C-44.02122294 7.10330032 -42.1670879 6.26989545 -40.3125 5.4375 C-39.67828125 5.13457031 -39.0440625 4.83164063 -38.390625 4.51953125 C-26.90891212 -0.48466662 -12.36478558 -0.00235158 0 0 Z " fill="#DC962C" transform="translate(163.3125,10.5625)"/>
<path d="M0 0 C0 5.28 0 10.56 0 16 C12.87 16 25.74 16 39 16 C39 49.66 39 83.32 39 118 C-10.83 118 -60.66 118 -112 118 C-112 114.04 -112 110.08 -112 106 C-107.38 106 -102.76 106 -98 106 C-98.33 104.5975 -98.66 103.195 -99 101.75 C-99.73516599 98.62554456 -100 96.27217135 -100 93 C-98.02 93 -96.04 93 -94 93 C-94 96.96 -94 100.92 -94 105 C-89.71 105 -85.42 105 -81 105 C-81 100.05 -81 95.1 -81 90 C-80.01 90 -79.02 90 -78 90 C-77.59007812 90.92683594 -77.18015625 91.85367188 -76.7578125 92.80859375 C-76.21898437 94.00613281 -75.68015625 95.20367187 -75.125 96.4375 C-74.59132812 97.63246094 -74.05765625 98.82742188 -73.5078125 100.05859375 C-72.32272765 103.08527631 -72.32272765 103.08527631 -70 104 C-68.29636178 104.22622081 -66.58671299 104.40888473 -64.875 104.5625 C-63.50988281 104.68818359 -63.50988281 104.68818359 -62.1171875 104.81640625 C-61.41851562 104.87699219 -60.71984375 104.93757813 -60 105 C-60.433125 104.154375 -60.86625 103.30875 -61.3125 102.4375 C-61.869375 101.303125 -62.42625 100.16875 -63 99 C-63.5775 97.824375 -64.155 96.64875 -64.75 95.4375 C-66.07584384 91.79142943 -66.36805535 90.55694391 -65 87 C-64.319375 86.13375 -63.63875 85.2675 -62.9375 84.375 C-60.19321449 79.59463169 -60.20539166 75.39319276 -61 70 C-63.13269345 66.12237555 -66.20335295 65.51099483 -70.25 64.25 C-71.82997089 63.82075935 -73.41235914 63.39994006 -75 63 C-75 60.69 -75 58.38 -75 56 C-63.45 56 -51.9 56 -40 56 C-40.33 54.35 -40.66 52.7 -41 51 C-41.14156928 49.08957224 -41.24474702 47.17604396 -41.31640625 45.26171875 C-41.35830078 44.19501953 -41.40019531 43.12832031 -41.44335938 42.02929688 C-41.48267578 40.92650391 -41.52199219 39.82371094 -41.5625 38.6875 C-41.60568359 37.56537109 -41.64886719 36.44324219 -41.69335938 35.28710938 C-41.79914787 32.52485431 -41.90123672 29.7625137 -42 27 C-40.68 27 -39.36 27 -38 27 C-38 26.34 -38 25.68 -38 25 C-36.35 24.67 -34.7 24.34 -33 24 C-33.33 24.66 -33.66 25.32 -34 26 C-34.99 26 -35.98 26 -37 26 C-37 34.91 -37 43.82 -37 53 C-25.78 53 -14.56 53 -3 53 C-3 41.45 -3 29.9 -3 18 C-9.27 18 -15.54 18 -22 18 C-19.35174655 15.35174655 -17.26264637 13.35282969 -14.3125 11.25 C-10.23338265 8.25966961 -6.51269475 4.95330874 -2.78515625 1.5390625 C-1 0 -1 0 0 0 Z " fill="#F1E383" transform="translate(283,194)"/>
<path d="M0 0 C2.83374078 5.66748157 3.63223832 10.69732561 4 17 C1.95928485 17.33910994 -0.08262621 17.67102704 -2.125 18 C-3.26195312 18.185625 -4.39890625 18.37125 -5.5703125 18.5625 C-8.76137602 18.96956049 -11.78817791 19.07809902 -15 19 C-15 19.66 -15 20.32 -15 21 C-16.98 21.33 -18.96 21.66 -21 22 C-20.5978125 23.8253125 -20.5978125 23.8253125 -20.1875 25.6875 C-20.00832031 26.52539062 -19.82914062 27.36328125 -19.64453125 28.2265625 C-19.22114286 30.04841556 -18.74054993 31.85808366 -18.19921875 33.6484375 C-11.22433504 58.3084529 -18.1667011 83.5001033 -26 107 C-26.99 107.495 -26.99 107.495 -28 108 C-28.72693904 109.97888961 -29.39816251 111.97954558 -30 114 C-30.66 114 -31.32 114 -32 114 C-32.34998047 115.28777344 -32.34998047 115.28777344 -32.70703125 116.6015625 C-34.15005411 120.39440205 -36.1730566 123.24926414 -38.6875 126.375 C-39.13448242 126.94009277 -39.58146484 127.50518555 -40.04199219 128.08740234 C-41.35156896 129.73306936 -42.67432706 131.3672911 -44 133 C-44.66128906 133.83015625 -45.32257813 134.6603125 -46.00390625 135.515625 C-49.30350003 139.50171145 -52.04549492 142.1420606 -57 144 C-58.546875 144.5878125 -58.546875 144.5878125 -60.125 145.1875 C-66.20963723 146.46331103 -72.96368691 147.42476494 -78.73046875 144.71875 C-81.06181969 142.95318303 -81.99928492 141.81817705 -83.1875 139.1875 C-83.64189453 138.21876953 -83.64189453 138.21876953 -84.10546875 137.23046875 C-86.18419505 132.04726912 -87.25979785 127.73612717 -87.30078125 122.1171875 C-87.30628998 121.46904587 -87.31179871 120.82090424 -87.31747437 120.15312195 C-87.32912162 118.06019073 -87.32287244 115.96793138 -87.3125 113.875 C-87.31134186 113.1615744 -87.31018372 112.4481488 -87.30899048 111.71310425 C-87.25997336 96.4627884 -86.95897227 79.86899734 -79.9597168 65.92797852 C-78.85971681 63.71818461 -78.27145063 61.46516945 -77.61328125 59.09375 C-70.56955178 35.04636785 -70.56955178 35.04636785 -63 30 C-62.773125 29.278125 -62.54625 28.55625 -62.3125 27.8125 C-56.96907719 16.36230827 -40.83747393 10.81800353 -30 6 C-29.21367187 5.63390625 -28.42734375 5.2678125 -27.6171875 4.890625 C-23.76147758 3.57853267 -19.83149427 3.04371701 -15.8125 2.4375 C-14.19355969 2.18911813 -12.57504397 1.93794801 -10.95703125 1.68359375 C-10.24522705 1.57587646 -9.53342285 1.46815918 -8.80004883 1.35717773 C-1.73081138 -0.04554767 -1.73081138 -0.04554767 0 0 Z " fill="#DB942A" transform="translate(268,83)"/>
<path d="M0 0 C11.41366123 1.14136612 22.20028565 3.91332251 33.0625 7.5 C33.96701904 7.79664551 34.87153809 8.09329102 35.8034668 8.39892578 C44.40757768 11.31128475 44.40757768 11.31128475 48 14 C48 14.66 48 15.32 48 16 C48.53625 16.2475 49.0725 16.495 49.625 16.75 C61.01260343 22.74347549 67.50275484 32.1436264 72 44 C72.76818937 46.98210158 73.41724703 49.97654047 74 53 C74.66 53 75.32 53 76 53 C79.25287278 61.86696794 81.33075525 70.71828981 83 80 C83.27198659 81.47268374 83.54412572 82.94533932 83.81640625 84.41796875 C91.17541665 124.6463464 91.17541665 124.6463464 81 140 C78.15568855 143.23742767 75.23409852 144.43801965 71 145 C63.52076823 145.01129793 54.72916999 144.40994143 48.9921875 139.1640625 C47.22009957 137.16953675 45.58785037 135.14318665 44 133 C43.44054687 132.31808594 42.88109375 131.63617188 42.3046875 130.93359375 C41 129 41 129 41 126 C40.01 125.67 39.02 125.34 38 125 C34 119.62857143 34 119.62857143 34 117 C33.34 117 32.68 117 32 117 C27.6529101 107.89621598 24.08475373 98.71265204 21.125 89.0625 C20.827146 88.104646 20.52929199 87.14679199 20.22241211 86.15991211 C17.17760613 75.96127295 16.797228 66.29608838 16.75 55.6875 C16.7190625 53.96756836 16.7190625 53.96756836 16.6875 52.21289062 C16.64152831 42.05889316 18.15078947 33.0056767 23 24 C23 23.01 23 22.02 23 21 C19.9797577 20.35129661 16.95886021 19.70595844 13.9375 19.0625 C13.08994141 18.88009766 12.24238281 18.69769531 11.36914062 18.50976562 C6.59082424 17.49506523 1.84509616 16.6245375 -3 16 C-2.40984815 10.49191603 -1.43336231 5.35121931 0 0 Z " fill="#DB942A" transform="translate(54,83)"/>
<path d="M0 0 C11.55 0 23.1 0 35 0 C35 1.98 35 3.96 35 6 C32.36 6 29.72 6 27 6 C27 20.19 27 34.38 27 49 C34.92 49 42.84 49 51 49 C51 46.03 51 43.06 51 40 C47.04 40 43.08 40 39 40 C38.67 26.8 38.34 13.6 38 0 C49.22 0 60.44 0 72 0 C72 1.98 72 3.96 72 6 C67.05 6 62.1 6 57 6 C57 20.19 57 34.38 57 49 C64.92 49 72.84 49 81 49 C81 46.03 81 43.06 81 40 C77.04 40 73.08 40 69 40 C69 37.69 69 35.38 69 33 C72.63 33 76.26 33 80 33 C80 30.03 80 27.06 80 24 C76.04 24 72.08 24 68 24 C68 21.36 68 18.72 68 16 C72.62 16 77.24 16 82 16 C81.505 11.545 81.505 11.545 81 7 C79.02 6.67 77.04 6.34 75 6 C75 4.02 75 2.04 75 0 C86.55 0 98.1 0 110 0 C110 1.98 110 3.96 110 6 C107.03 6 104.06 6 101 6 C100.88664307 6.99652588 100.77328613 7.99305176 100.65649414 9.01977539 C100.07467438 13.06964495 98.86031982 16.83727506 97.49609375 20.68359375 C97.2533522 21.38396255 97.01061066 22.08433136 96.76051331 22.80592346 C95.99211275 25.01857023 95.21497404 27.22802727 94.4375 29.4375 C93.91152622 30.94706256 93.38612993 32.45682647 92.86132812 33.96679688 C91.58088127 37.64689197 90.29259439 41.32415492 89 45 C88.34 45 87.68 45 87 45 C87 46.32 87 47.64 87 49 C91.29 49 95.58 49 100 49 C100.33 47.35 100.66 45.7 101 44 C101.33 43.01 101.66 42.02 102 41 C104.64 41 107.28 41 110 41 C110 47.93 110 54.86 110 62 C61.49 62 12.98 62 -37 62 C-37 54.08 -37 46.16 -37 38 C-26.44 38 -15.88 38 -5 38 C-5 41.63 -5 45.26 -5 49 C3.58 49 12.16 49 21 49 C21 46.03 21 43.06 21 40 C16.71 40 12.42 40 8 40 C8 37.36 8 34.72 8 32 C11.63 32 15.26 32 19 32 C19 29.36 19 26.72 19 24 C15.37 24 11.74 24 8 24 C8 21.36 8 18.72 8 16 C12.62 16 17.24 16 22 16 C21.505 11.545 21.505 11.545 21 7 C14.07 6.67 7.14 6.34 0 6 C0 4.02 0 2.04 0 0 Z " fill="#FBED88" transform="translate(58,250)"/>
<path d="M0 0 C20.13567073 -0.28810976 20.13567073 -0.28810976 27 2 C26.692326 7.33519817 26.35811242 12.6679571 26 18 C25.93941406 18.94230469 25.87882812 19.88460937 25.81640625 20.85546875 C25.41701369 25.59112338 24.17471726 28.82454286 22 33 C21.62986533 34.49134551 21.29893441 35.99276766 21 37.5 C20.22661807 41.37346376 18.95272291 44.53835484 17 48 C16.34 48 15.68 48 15 48 C14.74089844 48.7115625 14.48179687 49.423125 14.21484375 50.15625 C12.92374206 53.17850734 11.35852143 55.74996289 9.5625 58.5 C7.79918621 61.21161861 6.05275249 63.91021682 4.4140625 66.69921875 C2.6257999 69.60885044 0.4722274 71.63764937 -2 74 C-2.81404297 74.86238281 -2.81404297 74.86238281 -3.64453125 75.7421875 C-9.56011494 81.94420998 -16.15447786 86.86585839 -23 92 C-17.39 92.33 -11.78 92.66 -6 93 C-6 104.55 -6 116.1 -6 128 C-17.22 128 -28.44 128 -40 128 C-40 119.09 -40 110.18 -40 101 C-39.01 100.505 -39.01 100.505 -38 100 C-38.99 100 -39.98 100 -41 100 C-41 100.66 -41 101.32 -41 102 C-42.57725347 102.70133599 -44.16211333 103.385583 -45.75 104.0625 C-46.63171875 104.44535156 -47.5134375 104.82820313 -48.421875 105.22265625 C-51.15256309 106.04600008 -52.36901347 105.9773992 -55 105 C-46.738041 98.29612756 -46.738041 98.29612756 -42 98 C-42 97.34 -42 96.68 -42 96 C-40.390625 94.44921875 -40.390625 94.44921875 -38.25 92.6875 C-35.08238651 90.01237765 -32.56907035 87.26074314 -30 84 C-29.34 84 -28.68 84 -28 84 C-27.731875 83.195625 -27.46375 82.39125 -27.1875 81.5625 C-26.795625 80.716875 -26.40375 79.87125 -26 79 C-24.515 78.505 -24.515 78.505 -23 78 C-22.63247202 76.6756843 -22.30754224 75.33951732 -22 74 C-20.91298797 72.0493719 -19.76121251 70.1340471 -18.5625 68.25 C-17.94503906 67.26515625 -17.32757813 66.2803125 -16.69140625 65.265625 C-16.13324219 64.51796875 -15.57507813 63.7703125 -15 63 C-14.34 63 -13.68 63 -13 63 C-12.773125 62.236875 -12.54625 61.47375 -12.3125 60.6875 C-11.22663671 57.63674125 -10.01089661 54.85427933 -8.625 51.9375 C-2.51979253 38.6825363 0.36532402 25.40535984 0.125 10.875 C0.11597656 9.823125 0.10695313 8.77125 0.09765625 7.6875 C0.07435853 5.12475122 0.04165112 2.56250488 0 0 Z " fill="#EFCF9E" transform="translate(286,119)"/>
<path d="M0 0 C1.09326335 3.27979006 0.93776644 5.31899511 0.75 8.75 C0.69383728 21.42873372 6.41288061 32.21850734 12.0703125 43.22265625 C19.95988338 58.58838759 24.18309982 76.94274296 20.27734375 94.19140625 C18.48067333 99.07223966 16.28939055 102.92282852 12 106 C5.11475485 109.11928233 -2.52215958 110.07883978 -10 109 C-13.61353227 107.29187914 -15.54137434 105.83197908 -17.1875 102.1875 C-17.49042969 101.54167969 -17.79335937 100.89585937 -18.10546875 100.23046875 C-20.18419505 95.04726912 -21.25979785 90.73612717 -21.30078125 85.1171875 C-21.30628998 84.46904587 -21.31179871 83.82090424 -21.31747437 83.15312195 C-21.32912162 81.06019073 -21.32287244 78.96793138 -21.3125 76.875 C-21.31134186 76.1615744 -21.31018372 75.4481488 -21.30899048 74.71310425 C-21.25997336 59.4627884 -20.95897227 42.86899734 -13.9597168 28.92797852 C-12.86446627 26.7277258 -12.27584927 24.48863436 -11.62890625 22.125 C-9.70808165 15.63476037 -7.51231225 8.80295067 -4 3 C-3.01 2.67 -2.02 2.34 -1 2 C-0.67 1.34 -0.34 0.68 0 0 Z " fill="#C98825" transform="translate(202,120)"/>
<path d="M0 0 C2.60401435 1.15111231 4.96145874 2.51096669 7.359375 4.04296875 C9.35179989 5.05797765 11.35011695 6.06170319 13.359375 7.04296875 C13.359375 7.70296875 13.359375 8.36296875 13.359375 9.04296875 C14.6175 9.41421875 15.875625 9.78546875 17.171875 10.16796875 C22.95710267 12.07488297 28.10137402 15.00610463 33.359375 18.04296875 C33.359375 19.03296875 33.359375 20.02296875 33.359375 21.04296875 C32.16699219 21.46964844 30.97460938 21.89632812 29.74609375 22.3359375 C20.82308414 25.45772627 20.82308414 25.45772627 14.84375 32.15234375 C14.47863644 34.37432055 14.17914551 36.60805563 13.9453125 38.84765625 C12.94647494 44.29465043 9.27924629 47.3789048 5.359375 51.04296875 C4.69808594 51.76355469 4.03679687 52.48414063 3.35546875 53.2265625 C-1.15175989 57.32805236 -7.38115425 56.31379228 -13.16015625 56.25390625 C-20.86805023 55.78676116 -26.44328542 52.75346337 -31.640625 47.04296875 C-34.51371944 43.10601623 -35.08395372 40.06506016 -35.328125 35.23046875 C-35.39386719 34.06902344 -35.45960938 32.90757813 -35.52734375 31.7109375 C-35.56472656 30.83050781 -35.60210937 29.95007812 -35.640625 29.04296875 C-36.960625 29.04296875 -38.280625 29.04296875 -39.640625 29.04296875 C-39.640625 28.38296875 -39.640625 27.72296875 -39.640625 27.04296875 C-40.81625 26.79546875 -41.991875 26.54796875 -43.203125 26.29296875 C-47.54868503 25.22400746 -50.85786566 23.40719334 -54.640625 21.04296875 C-54.640625 20.05296875 -54.640625 19.06296875 -54.640625 18.04296875 C-53.35149013 17.37141942 -52.05922296 16.70588016 -50.765625 16.04296875 C-50.04632813 15.67171875 -49.32703125 15.30046875 -48.5859375 14.91796875 C-46.640625 14.04296875 -46.640625 14.04296875 -44.640625 14.04296875 C-44.640625 13.38296875 -44.640625 12.72296875 -44.640625 12.04296875 C-43.4340625 11.511875 -42.2275 10.98078125 -40.984375 10.43359375 C-39.36974689 9.72015342 -37.75516608 9.00660603 -36.140625 8.29296875 C-35.34914062 7.94492187 -34.55765625 7.596875 -33.7421875 7.23828125 C-29.83284723 5.50791753 -25.97675151 3.727945 -22.171875 1.77734375 C-18.640625 0.04296875 -18.640625 0.04296875 -16.640625 0.04296875 C-16.640625 -0.61703125 -16.640625 -1.27703125 -16.640625 -1.95703125 C-10.9939689 -5.51233324 -5.65556984 -2.31744504 0 0 Z " fill="#FCEC88" transform="translate(171.640625,27.95703125)"/>
<path d="M0 0 C0.66 0 1.32 0 2 0 C5.06242216 4.84060277 6.53411505 8.29290936 7 14 C7.66 14 8.32 14 9 14 C12.25287278 22.86696794 14.33075525 31.71828981 16 41 C16.27198659 42.47268374 16.54412572 43.94533932 16.81640625 45.41796875 C24.17541665 85.6463464 24.17541665 85.6463464 14 101 C11.15568855 104.23742767 8.23409852 105.43801965 4 106 C-2.59107023 106.0099563 -10.24635346 105.47616145 -16 102 C-18.00352357 99.52974651 -19.01005592 97.00264808 -20 94 C-20.4125 92.845 -20.825 91.69 -21.25 90.5 C-24.36041294 75.58153793 -20.4254447 62.18653195 -16 48 C-15.34 48 -14.68 48 -14 48 C-13.86464844 47.46375 -13.72929688 46.9275 -13.58984375 46.375 C-11.81595495 39.91677011 -9.32939446 33.94569708 -6.51342773 27.88671875 C-3.39015202 21.03687521 -1.85103088 14.60283964 -1.4375 7.0625 C-1.10218978 1.10218978 -1.10218978 1.10218978 0 0 Z " fill="#C98826" transform="translate(121,122)"/>
<path d="M0 0 C11.55 0 23.1 0 35 0 C35 2.64 35 5.28 35 8 C34.01 7.505 34.01 7.505 33 7 C29.37 7 25.74 7 22 7 C21.67 20.86 21.34 34.72 21 49 C24.96 49 28.92 49 33 49 C32.835 48.01 32.67 47.02 32.5 46 C31.60622251 39.05119475 31.92364008 31.99117499 32 25 C35.96840401 26.51472564 37.61644831 28.87217833 40 32.3125 C41.97397578 35.13852391 43.91387732 37.89693775 46.125 40.54296875 C48 43 48 43 50 48 C55.445 48.495 55.445 48.495 61 49 C61 45.37 61 41.74 61 38 C64.63 38 68.26 38 72 38 C72 45.92 72 53.84 72 62 C36.03 62 0.06 62 -37 62 C-37 58.04 -37 54.08 -37 50 C-32.38 50 -27.76 50 -23 50 C-23.495 47.89625 -23.495 47.89625 -24 45.75 C-24.73516599 42.62554456 -25 40.27217135 -25 37 C-23.02 37 -21.04 37 -19 37 C-19 40.96 -19 44.92 -19 49 C-14.71 49 -10.42 49 -6 49 C-6 44.05 -6 39.1 -6 34 C-5.01 34 -4.02 34 -3 34 C-2.59007812 34.92683594 -2.18015625 35.85367188 -1.7578125 36.80859375 C-1.21898437 38.00613281 -0.68015625 39.20367187 -0.125 40.4375 C0.40867188 41.63246094 0.94234375 42.82742188 1.4921875 44.05859375 C2.67727235 47.08527631 2.67727235 47.08527631 5 48 C6.70363822 48.22622081 8.41328701 48.40888473 10.125 48.5625 C11.03507812 48.64628906 11.94515625 48.73007812 12.8828125 48.81640625 C13.58148438 48.87699219 14.28015625 48.93757813 15 49 C14.566875 48.154375 14.13375 47.30875 13.6875 46.4375 C13.130625 45.303125 12.57375 44.16875 12 43 C11.4225 41.824375 10.845 40.64875 10.25 39.4375 C8.92415616 35.79142943 8.63194465 34.55694391 10 31 C10.680625 30.13375 11.36125 29.2675 12.0625 28.375 C14.80678551 23.59463169 14.79460834 19.39319276 14 14 C11.86730655 10.12237555 8.79664705 9.51099483 4.75 8.25 C3.17002911 7.82075935 1.58764086 7.39994006 0 7 C0 4.69 0 2.38 0 0 Z " fill="#FCEE88" transform="translate(208,250)"/>
<path d="M0 0 C1.81038811 7.43743725 2.31770645 14.48535698 2.25 22.125 C2.24395752 23.21941406 2.23791504 24.31382813 2.23168945 25.44140625 C2.0883075 37.24565181 1.51658451 48.94789689 -3 60 C-3.31066406 60.81855469 -3.62132812 61.63710937 -3.94140625 62.48046875 C-6.00255741 67.82329587 -8.36453018 72.9173082 -11 78 C-11.66 78 -12.32 78 -13 78 C-13.23976563 78.85335937 -13.47953125 79.70671875 -13.7265625 80.5859375 C-15.13091733 84.35098696 -17.03568343 87.39801059 -19.375 90.625 C-20.02505005 91.52871338 -20.02505005 91.52871338 -20.68823242 92.45068359 C-26.1377596 99.81261349 -32.56961894 106.47841505 -39.7421875 112.1796875 C-42.11693244 113.9316782 -42.11693244 113.9316782 -43.8125 116.5 C-46.64812535 119.74071469 -49.9111194 121.6370398 -54 123 C-54.66 122.67 -55.32 122.34 -56 122 C-55.29037109 121.35998047 -55.29037109 121.35998047 -54.56640625 120.70703125 C-47.47371671 114.00146706 -41.10825568 105.9084281 -37 97 C-36.34 97 -35.68 97 -35 97 C-34.34 94.69 -33.68 92.38 -33 90 C-32.34 90 -31.68 90 -31 90 C-30.88462891 89.45255127 -30.76925781 88.90510254 -30.65039062 88.34106445 C-29.63782872 83.64796008 -28.48557867 79.03170068 -27.1472168 74.42138672 C-21.42935039 54.68601227 -19.02857242 34.23809192 -25.02734375 14.2421875 C-25.95462985 11.15123385 -26.62443615 8.20417764 -27 5 C-26 4 -26 4 -22.9375 3.9375 C-21.4834375 3.9684375 -21.4834375 3.9684375 -20 4 C-20 3.34 -20 2.68 -20 2 C-13.25846717 0.74158054 -6.86515862 -0.26404456 0 0 Z " fill="#EECE9B" transform="translate(273,100)"/>
<path d="M0 0 C0.00410889 0.72888428 0.00821777 1.45776855 0.01245117 2.20874023 C0.15643075 16.83360986 0.48464808 30.34091183 6 44 C6.2985791 44.75104004 6.5971582 45.50208008 6.90478516 46.27587891 C10.42912539 54.98529027 14.32225508 63.17521867 19.65234375 70.93359375 C21 73 21 73 22 76 C22.66 76 23.32 76 24 76 C24.97506169 77.41942026 25.94307637 78.8444349 26.86669922 80.29785156 C32.85636658 89.29396548 41.13664108 96.03842148 50 102 C51.33954205 102.99166772 52.6751983 103.98872445 54 105 C49.21869184 104.40872372 45.33073134 103.01770306 40.9375 101.0625 C36.97878184 99.31309903 33.03081473 97.57727533 29 96 C29 95.34 29 94.68 29 94 C27.95779297 93.62875 27.95779297 93.62875 26.89453125 93.25 C23.55975671 91.80988144 20.71245485 90.00924962 17.6875 88 C16.08455078 86.948125 16.08455078 86.948125 14.44921875 85.875 C13.64097656 85.25625 12.83273438 84.6375 12 84 C12 83.34 12 82.68 12 82 C11.443125 81.773125 10.88625 81.54625 10.3125 81.3125 C-1.85351301 74.40746559 -9.78812816 59.01677985 -16 47 C-16.34756348 46.33492432 -16.69512695 45.66984863 -17.05322266 44.98461914 C-24.1023033 31.24867012 -27.63185064 16.48034065 -27 1 C-18.02243049 -0.3300103 -9.05168034 -0.08788039 0 0 Z " fill="#EFD09E" transform="translate(36,119)"/>
<path d="M0 0 C9.08923201 0.5737389 18.00200434 1.61050442 27 3 C27.84269359 5.38852642 28.13369301 6.61369367 27.29296875 9.04296875 C26.92816406 9.75066406 26.56335938 10.45835938 26.1875 11.1875 C21.74259856 19.83660424 21.68629218 28.7722546 21.75 38.3125 C21.74226563 39.45912109 21.73453125 40.60574219 21.7265625 41.78710938 C21.75176529 52.92044131 23.47840836 63.25359003 26.75 73.875 C27.0073291 74.72562012 27.2646582 75.57624023 27.52978516 76.45263672 C29.56292649 82.9953865 32.04306378 89.22206207 34.8984375 95.4453125 C36 98 36 98 36 100 C36.66 100 37.32 100 38 100 C39.21875 101.71484375 39.21875 101.71484375 40.5 103.9375 C42.18454879 107.05432026 42.18454879 107.05432026 45 109 C46.1875 110.8125 46.1875 110.8125 47 113 C46.55078125 115.13671875 46.55078125 115.13671875 46 117 C44.39032422 115.92486946 42.78746337 114.83953156 41.1875 113.75 C40.29417969 113.14671875 39.40085938 112.5434375 38.48046875 111.921875 C36.12894241 110.09990498 34.71661749 108.39316674 33 106 C32.195625 105.54625 31.39125 105.0925 30.5625 104.625 C27.35935313 102.59373613 26.02283129 100.16910235 24 97 C22.515 96.01 22.515 96.01 21 95 C18.12305205 90.65469879 15.74273773 85.91135178 14 81 C13.34 81 12.68 81 12 81 C7.41647442 71.12591565 3.90085543 61.24488629 1.39453125 50.65795898 C0.70937023 47.77085455 0.01020553 45.0252967 -1.1015625 42.26953125 C-2.49129482 37.21211408 -2.29336898 32.21937894 -2.25 27 C-2.24613281 25.88890869 -2.24226563 24.77781738 -2.23828125 23.63305664 C-2.15395002 15.60226423 -1.58078246 7.88979818 0 0 Z " fill="#EECD9B" transform="translate(50,100)"/>
<path d="M0 0 C11.55 0 23.1 0 35 0 C35 11.55 35 23.1 35 35 C23.45 35 11.9 35 0 35 C0 23.45 0 11.9 0 0 Z " fill="#FDEF89" transform="translate(283,250)"/>
<path d="M0 0 C11.55 0 23.1 0 35 0 C35 6 35 6 34 8 C33.84588894 10.0307477 33.75017547 12.06606421 33.68359375 14.1015625 C33.64548584 15.19291504 33.60737793 16.28426758 33.56811523 17.40869141 C33.52501221 18.80007324 33.48190918 20.19145508 33.4375 21.625 C33.293125 26.03875 33.14875 30.4525 33 35 C22.11 35 11.22 35 0 35 C0 23.45 0 11.9 0 0 Z " fill="#FDEF89" transform="translate(21,250)"/>
<path d="M0 0 C11.22 0 22.44 0 34 0 C34 11.22 34 22.44 34 34 C22.78 34 11.56 34 0 34 C0 22.78 0 11.56 0 0 Z " fill="#FDEF89" transform="translate(283,213)"/>
<path d="M0 0 C11.22 0 22.44 0 34 0 C34 11.22 34 22.44 34 34 C22.78 34 11.56 34 0 34 C0 22.78 0 11.56 0 0 Z " fill="#FDEF89" transform="translate(21,213)"/>
<path d="M0 0 C3.320625 0.0825 6.64125 0.165 10.0625 0.25 C10.0625 11.8 10.0625 23.35 10.0625 35.25 C-1.1575 35.25 -12.3775 35.25 -23.9375 35.25 C-23.9375 26.34 -23.9375 17.43 -23.9375 8.25 C-21.9575 7.59 -19.9775 6.93 -17.9375 6.25 C-17.9375 5.59 -17.9375 4.93 -17.9375 4.25 C-11.89915638 -0.00447789 -7.25519729 -0.25585934 0 0 Z " fill="#FDEF89" transform="translate(269.9375,211.75)"/>
<path d="M0 0 C1.00514648 0.00749268 2.01029297 0.01498535 3.04589844 0.02270508 C4.3146582 0.05001709 5.58341797 0.0773291 6.890625 0.10546875 C10.933125 0.16734375 14.975625 0.22921875 19.140625 0.29296875 C19.140625 11.51296875 19.140625 22.73296875 19.140625 34.29296875 C7.590625 34.29296875 -3.959375 34.29296875 -15.859375 34.29296875 C-15.92125 30.91046875 -15.983125 27.52796875 -16.046875 24.04296875 C-16.07418701 22.98303711 -16.10149902 21.92310547 -16.12963867 20.83105469 C-16.13713135 19.98833008 -16.14462402 19.14560547 -16.15234375 18.27734375 C-16.1680542 17.41850586 -16.18376465 16.55966797 -16.19995117 15.67480469 C-15.78524485 12.77453594 -14.86427894 11.39993055 -12.859375 9.29296875 C-12.199375 9.29296875 -11.539375 9.29296875 -10.859375 9.29296875 C-10.776875 8.36484375 -10.694375 7.43671875 -10.609375 6.48046875 C-9.859375 3.29296875 -9.859375 3.29296875 -8.17871094 1.61206055 C-5.2568246 -0.04972386 -3.34922646 -0.05126367 0 0 Z " fill="#FDEF89" transform="translate(148.859375,212.70703125)"/>
<path d="M0 0 C9.99380112 -0.65509969 9.99380112 -0.65509969 13.75390625 1.79296875 C14.64916016 2.97826172 14.64916016 2.97826172 15.5625 4.1875 C16.18253906 4.96480469 16.80257812 5.74210937 17.44140625 6.54296875 C19 9 19 9 19.98828125 11.59375 C21.1360302 14.32353129 22.32795223 15.48336937 24.625 17.3125 C25.57246094 18.08013672 25.57246094 18.08013672 26.5390625 18.86328125 C27.02117187 19.23839844 27.50328125 19.61351562 28 20 C27.9278125 19.31035156 27.855625 18.62070312 27.78125 17.91015625 C27.18806058 11.90411341 26.90107705 6.0343 27 0 C30.3 0 33.6 0 37 0 C37 13.2 37 26.4 37 40 C29 40 29 40 26.171875 37.5859375 C25.33953966 36.53498243 24.53238694 35.46365025 23.75 34.375 C23.13898438 33.59189453 23.13898438 33.59189453 22.515625 32.79296875 C20.55145991 30.24333137 18.75604273 27.62061763 17.015625 24.9140625 C14.74715912 21.44833074 14.74715912 21.44833074 10 17 C10.33 24.92 10.66 32.84 11 41 C7.04 41 3.08 41 -1 41 C-1.1609754 27.31709111 -0.55612151 13.66934846 0 0 Z " fill="#A57220" transform="translate(230,258)"/>
<path d="M0 0 C23.54096073 -0.74496711 23.54096073 -0.74496711 31 5 C32.70792999 6.70792999 32.25270346 8.85543481 32.3125 11.1875 C32.28578083 16.35097939 31.22850134 18.89099829 28 23 C26.59703306 26.64771403 26.95125718 27.86537697 28.3125 31.625 C29.91989423 35.01421231 29.91989423 35.01421231 32 38 C32 38.99 32 39.98 32 41 C23.01937407 41.61698957 23.01937407 41.61698957 19.625 39.5625 C16.78916297 35.09060315 14 30.37769061 14 25 C12.68 25 11.36 25 10 25 C10 29.95 10 34.9 10 40 C6.7 40 3.4 40 0 40 C0 26.8 0 13.6 0 0 Z " fill="#A57220" transform="translate(191,258)"/>
<path d="M0 0 C3.63 0 7.26 0 11 0 C11.8971875 2.2584375 11.8971875 2.2584375 12.8125 4.5625 C14.01132758 7.57223262 15.24143813 10.54082141 16.5625 13.5 C18.05238632 17.1275493 19.15864891 20.75175412 20.2421875 24.515625 C20.93747594 26.7950242 21.74194893 28.97558568 22.625 31.1875 C24.02692005 34.79138872 24.59991803 38.15921309 25 42 C21.04 42 17.08 42 13 42 C12.34 39.03 11.68 36.06 11 33 C7.37 33 3.74 33 0 33 C-0.66 35.64 -1.32 38.28 -2 41 C-5.63 41 -9.26 41 -13 41 C-11.35102994 32.1889371 -8.32905291 23.87405905 -5.375 15.4375 C-4.85370978 13.93700761 -4.33287262 12.43635774 -3.8125 10.93554688 C-2.54688478 7.28852729 -1.27515038 3.64369607 0 0 Z " fill="#A67421" transform="translate(159,257)"/>
<path d="M0 0 C3.3 0 6.6 0 10 0 C13.05458914 3.13095387 13.88157376 5.52629503 14.9375 9.75 C15.62555184 13.11375869 15.62555184 13.11375869 18.140625 14.1640625 C21.40826085 15.11935495 24.41607293 15.41915593 27.8125 15.625 C30.8753125 15.810625 30.8753125 15.810625 34 16 C34 21.94 34 27.88 34 34 C22.78 34 11.56 34 0 34 C0 22.78 0 11.56 0 0 Z " fill="#FDEF89" transform="translate(171,213)"/>
<path d="M0 0 C11.55 0 23.1 0 35 0 C35 7.92 35 15.84 35 24 C23.45 24 11.9 24 0 24 C0 16.08 0 8.16 0 0 Z " fill="#FDEF89" transform="translate(283,288)"/>
<path d="M0 0 C8.25 0 16.5 0 25 0 C25 2.97 25 5.94 25 9 C20.38 9 15.76 9 11 9 C11 11.64 11 14.28 11 17 C14.96 17 18.92 17 23 17 C23 19.97 23 22.94 23 26 C19.37 26 15.74 26 12 26 C12 28.31 12 30.62 12 33 C15.96 33 19.92 33 24 33 C24 35.97 24 38.94 24 42 C16.08 42 8.16 42 0 42 C0 28.14 0 14.28 0 0 Z " fill="#A4701E" transform="translate(115,257)"/>
<path d="M0 0 C11.55 0 23.1 0 35 0 C35 7.59 35 15.18 35 23 C23.45 23 11.9 23 0 23 C0 15.41 0 7.82 0 0 Z " fill="#FDEF89" transform="translate(58,0)"/>
<path d="M0 0 C11.55 0 23.1 0 35 0 C35.020625 3.609375 35.04125 7.21875 35.0625 10.9375 C35.071604 12.07695068 35.08070801 13.21640137 35.09008789 14.39038086 C35.09258545 15.28120361 35.09508301 16.17202637 35.09765625 17.08984375 C35.10289307 18.00628662 35.10812988 18.92272949 35.11352539 19.86694336 C35 22 35 22 34 23 C31.47905924 23.08847743 28.98569107 23.11527301 26.46484375 23.09765625 C25.33496788 23.09553383 25.33496788 23.09553383 24.18226624 23.09336853 C21.7673044 23.08775376 19.35243399 23.07519883 16.9375 23.0625 C15.30403779 23.0574869 13.67057414 23.05292366 12.03710938 23.04882812 C8.0246757 23.03862875 4.01244064 23.01905645 0 23 C0 15.41 0 7.82 0 0 Z " fill="#FDEF89" transform="translate(283,0)"/>
<path d="M0 0 C1.60488281 -0.03867188 1.60488281 -0.03867188 3.2421875 -0.078125 C6.125 0.25 6.125 0.25 8.0078125 1.640625 C9.125 3.25 9.125 3.25 9.125 5.25 C9.785 5.25 10.445 5.25 11.125 5.25 C11.79908308 6.51691507 12.46400497 7.78870749 13.125 9.0625 C13.681875 10.12404297 13.681875 10.12404297 14.25 11.20703125 C15.125 13.25 15.125 13.25 15.125 16.25 C15.785 16.25 16.445 16.25 17.125 16.25 C19.125 22.25 19.125 22.25 20.125 35.25 C11.215 35.25 2.305 35.25 -6.875 35.25 C-6.8979102 30.42612933 -6.91783686 25.60244611 -6.92993164 20.77856445 C-6.93497174 19.13630536 -6.94180378 17.49405077 -6.95043945 15.85180664 C-6.96251926 13.49624521 -6.96823139 11.14074291 -6.97265625 8.78515625 C-6.97781754 8.04660904 -6.98297882 7.30806183 -6.98829651 6.5471344 C-6.9884925 4.78101912 -6.93694719 3.01502854 -6.875 1.25 C-5.07228218 -0.55271782 -2.43091251 0.03497716 0 0 Z " fill="#FDEE88" transform="translate(139.875,99.75)"/>
<path d="M0 0 C11.22 0 22.44 0 34 0 C34 7.59 34 15.18 34 23 C22.78 23 11.56 23 0 23 C0 15.41 0 7.82 0 0 Z " fill="#FDEF89" transform="translate(246,0)"/>
<path d="M0 0 C3.52691911 1.38398092 6.98947904 2.86755003 10.4375 4.4375 C11.39914063 4.87320313 12.36078125 5.30890625 13.3515625 5.7578125 C15.37295109 6.70589741 17.35385082 7.7407863 19.3125 8.8125 C22.48041273 10.21227539 24.57297617 10.45693651 28 10 C29.01367795 9.01386765 30.01242094 8.01226854 31 7 C32.83203125 5.9375 32.83203125 5.9375 34.8125 5 C37.33186717 3.79810007 39.78926778 2.57500966 42.25 1.25 C45 0 45 0 49 0 C48.51357363 6.68836261 47.32295942 13.57505717 42.47265625 18.57421875 C41.01634338 19.75992091 39.51021127 20.88375688 38 22 C37.34 22.99 36.68 23.98 36 25 C29.60274567 27.52368749 19.97017267 26.98137237 13.5 24.9375 C9.39158602 23.0780885 6.21954823 19.90943155 4 16 C4 14.68 4 13.36 4 12 C3.34 12 2.68 12 2 12 C0.70756464 7.8803623 -0.26252625 4.33168317 0 0 Z " fill="#F7E9D1" transform="translate(137,58)"/>
<path d="M0 0 C7.92 0 15.84 0 24 0 C24 2.64 24 5.28 24 8 C19.71 8 15.42 8 11 8 C11 10.64 11 13.28 11 16 C14.63 16 18.26 16 22 16 C22 18.64 22 21.28 22 24 C18.37 24 14.74 24 11 24 C11 26.64 11 29.28 11 32 C15.29 32 19.58 32 24 32 C24 34.97 24 37.94 24 41 C16.08 41 8.16 41 0 41 C0 27.47 0 13.94 0 0 Z " fill="#A87623" transform="translate(55,258)"/>
<path d="M0 0 C1.48206495 0.254496 2.96068615 0.52911762 4.4375 0.8125 C5.67306641 1.03873047 5.67306641 1.03873047 6.93359375 1.26953125 C7.95646484 1.63111328 7.95646484 1.63111328 9 2 C9.33 2.99 9.66 3.98 10 5 C12.24743756 6.15020525 12.24743756 6.15020525 15 7 C15.89589844 7.33644531 16.79179688 7.67289063 17.71484375 8.01953125 C21.33415938 9.09973128 24.60828517 9.41178973 28.375 9.625 C31.654375 9.810625 31.654375 9.810625 35 10 C35 15.94 35 21.88 35 28 C23.78 28 12.56 28 1 28 C-0.35700647 25.28598706 -0.1123861 23.15153684 -0.09765625 20.1171875 C-0.09443359 18.95058594 -0.09121094 17.78398437 -0.08789062 16.58203125 C-0.07951172 15.35871094 -0.07113281 14.13539063 -0.0625 12.875 C-0.05798828 11.64394531 -0.05347656 10.41289062 -0.04882812 9.14453125 C-0.0370133 6.09630608 -0.02054028 3.04817686 0 0 Z " fill="#FDEE89" transform="translate(95,219)"/>
<path d="M0 0 C11.55 0 23.1 0 35 0 C35 11.55 35 23.1 35 35 C33.35 35 31.7 35 30 35 C30.33 29.72 30.66 24.44 31 19 C21.43 18.34 11.86 17.68 2 17 C2.33 18.65 2.66 20.3 3 22 C3.06652855 24.26995419 3.08543751 26.54168695 3.0625 28.8125 C3.05347656 29.97394531 3.04445313 31.13539063 3.03515625 32.33203125 C3.02355469 33.21246094 3.01195312 34.09289062 3 35 C2.01 35 1.02 35 0 35 C0 23.45 0 11.9 0 0 Z " fill="#FDEF89" transform="translate(283,101)"/>
<path d="M0 0 C1.43352211 0.00025101 2.86705028 0.00580931 4.30053711 0.01586914 C5.30159485 0.01737976 5.30159485 0.01737976 6.32287598 0.0189209 C8.82456166 0.02416731 11.32622292 0.03812848 13.82788086 0.05102539 C22.21194336 0.08196289 22.21194336 0.08196289 30.76538086 0.11352539 C30.76538086 11.66352539 30.76538086 23.21352539 30.76538086 35.11352539 C27.13538086 35.11352539 23.50538086 35.11352539 19.76538086 35.11352539 C19.76538086 25.87352539 19.76538086 16.63352539 19.76538086 7.11352539 C15.47538086 7.11352539 11.18538086 7.11352539 6.76538086 7.11352539 C6.76538086 12.72352539 6.76538086 18.33352539 6.76538086 24.11352539 C3.2724067 22.36703831 1.96278794 21.54646226 -0.42211914 18.73852539 C-0.93129883 18.15329102 -1.44047852 17.56805664 -1.96508789 16.96508789 C-4.3624046 13.46869368 -4.37188086 10.07661571 -4.35961914 5.92602539 C-4.36219727 5.0455957 -4.36477539 4.16516602 -4.36743164 3.25805664 C-4.15067306 -0.24195695 -3.60881002 0.12665836 0 0 Z " fill="#FCED88" transform="translate(249.234619140625,249.886474609375)"/>
<path d="M0 0 C0.99 0 1.98 0 3 0 C4.54296875 2.08984375 4.54296875 2.08984375 6.1875 4.9375 C9.18517901 9.8951999 12.5058634 14.03556444 16.49609375 18.22265625 C18 20 18 20 18 22 C18.58652344 22.26941406 19.17304687 22.53882813 19.77734375 22.81640625 C21.99709279 23.99845187 23.67839368 25.28100384 25.5625 26.9375 C26.14128906 27.44152344 26.72007813 27.94554687 27.31640625 28.46484375 C30.70131579 31.55131579 30.70131579 31.55131579 32 33 C32 33.66 32 34.32 32 35 C20.78 35 9.56 35 -2 35 C-2.04125 29.59625 -2.0825 24.1925 -2.125 18.625 C-2.14320801 16.92037598 -2.16141602 15.21575195 -2.18017578 13.45947266 C-2.18601603 12.11100581 -2.1911127 10.76253545 -2.1953125 9.4140625 C-2.20554443 8.71176514 -2.21577637 8.00946777 -2.22631836 7.28588867 C-2.2269548 5.52231164 -2.12266864 3.75930576 -2 2 C-1.34 1.34 -0.68 0.68 0 0 Z " fill="#FDEF8A" transform="translate(23,175)"/>
<path d="M0 0 C0.66 0.33 1.32 0.66 2 1 C1.03320312 1.85658203 1.03320312 1.85658203 0.046875 2.73046875 C-3.06289942 7.69779926 -2.67606268 12.56219277 -2.75 18.3125 C-2.79447266 19.99569336 -2.79447266 19.99569336 -2.83984375 21.71289062 C-2.91036253 24.47487614 -2.95746639 27.23744181 -3 30 C3.435 29.505 3.435 29.505 10 29 C9 31 9 31 6.75 32.3125 C3.6828316 34.19462607 1.50397305 36.43013293 -1 39 C-1.99 39.66 -2.98 40.32 -4 41 C-5.20450304 43.55183404 -5.20450304 43.55183404 -6 46 C-7 44 -7 44 -6 32 C-15.9 32.33 -25.8 32.66 -36 33 C-33.63707934 28.27415869 -30.69688273 25.27349297 -27 21.5625 C-26.30390625 20.86253906 -25.6078125 20.16257812 -24.890625 19.44140625 C-17.28918253 12.0016966 -8.81033284 5.91867332 0 0 Z " fill="#FCED87" transform="translate(211,68)"/>
<path d="M0 0 C8.91 0 17.82 0 27 0 C27 7.95563585 26.89881739 15.81676762 26.5 23.75 C26.45230469 24.74515625 26.40460937 25.7403125 26.35546875 26.765625 C26.2395273 29.17720719 26.12013976 31.58862332 26 34 C22.37 34 18.74 34 15 34 C15.33 28.39 15.66 22.78 16 17 C10.72 17 5.44 17 0 17 C0 11.39 0 5.78 0 0 Z " fill="#FDEF89" transform="translate(21,101)"/>
<path d="M0 0 C5.94 0 11.88 0 18 0 C18 11.55 18 23.1 18 35 C12.06 35 6.12 35 0 35 C0 23.45 0 11.9 0 0 Z " fill="#FDEF89" transform="translate(0,250)"/>
<path d="M0 0 C5.94 0 11.88 0 18 0 C18 11.55 18 23.1 18 35 C12.06 35 6.12 35 0 35 C0 23.45 0 11.9 0 0 Z " fill="#FDEF89" transform="translate(0,175)"/>
<path d="M0 0 C5.94 0 11.88 0 18 0 C18 11.55 18 23.1 18 35 C12.06 35 6.12 35 0 35 C0 23.45 0 11.9 0 0 Z " fill="#FDEF89" transform="translate(0,63)"/>
<path d="M0 0 C11.22 0 22.44 0 34 0 C34 1.98 34 3.96 34 6 C29.05 6.33 24.1 6.66 19 7 C18.67 16.24 18.34 25.48 18 35 C15.03 35 12.06 35 9 35 C6.80278701 30.18705726 5.20350689 25.42024653 3.76171875 20.33203125 C3.03446411 17.82447491 3.03446411 17.82447491 1.3125 15.125 C0 12 0 12 0 0 Z " fill="#FCED88" transform="translate(171,250)"/>
<path d="M0 0 C5.94 0 11.88 0 18 0 C18 11.22 18 22.44 18 34 C12.06 34 6.12 34 0 34 C0 22.78 0 11.56 0 0 Z " fill="#FDEF89" transform="translate(0,213)"/>
<path d="M0 0 C3.63 0 7.26 0 11 0 C12 1 12 1 12.11352539 4.05102539 C12.11336634 5.39991271 12.10767612 6.74880614 12.09765625 8.09765625 C12.0962413 8.80651474 12.09482635 9.51537323 12.09336853 10.24571228 C12.08775443 12.51801712 12.07519963 14.79022475 12.0625 17.0625 C12.05748681 18.59960796 12.05292359 20.13671745 12.04882812 21.67382812 C12.03778042 25.44925642 12.02050641 29.22461171 12 33 C15.96 33 19.92 33 24 33 C24 35.97 24 38.94 24 42 C16.08 42 8.16 42 0 42 C0 28.14 0 14.28 0 0 Z " fill="#AB7B27" transform="translate(85,257)"/>
<path d="M0 0 C6.6 0 13.2 0 20 0 C18.25 11.625 18.25 11.625 16 15 C14.15864917 20.40896806 13.31200221 25.88038199 12.46484375 31.5234375 C12 34 12 34 11 35 C7.37 35 3.74 35 0 35 C0 23.45 0 11.9 0 0 Z " fill="#FDEE88" transform="translate(171,138)"/>
<path d="M0 0 C5.94 0 11.88 0 18 0 C18 7.92 18 15.84 18 24 C12.06 24 6.12 24 0 24 C0 16.08 0 8.16 0 0 Z " fill="#FDEF89" transform="translate(0,288)"/>
<path d="M0 0 C5.94 0 11.88 0 18 0 C18 7.59 18 15.18 18 23 C12.06 23 6.12 23 0 23 C0 15.41 0 7.82 0 0 Z " fill="#FDEF89" transform="translate(0,0)"/>
<path d="M0 0 C6.93 0 13.86 0 21 0 C21 11.22 21 22.44 21 34 C20.34 34 19.68 34 19 34 C15.9511817 28.65440524 13.05619965 23.4143686 10.9375 17.625 C9.35577067 13.45558795 7.45805985 10.9120504 4 8 C3.34 7.34 2.68 6.68 2 6 C2 4.68 2 3.36 2 2 C1.34 2 0.68 2 0 2 C0 1.34 0 0.68 0 0 Z " fill="#FBEC86" transform="translate(110,101)"/>
<path d="M0 0 C2.64 0 5.28 0 8 0 C7.67 11.55 7.34 23.1 7 35 C4.03 35 1.06 35 -2 35 C-2.04937279 30.33692986 -2.08570627 25.67401127 -2.10986328 21.01074219 C-2.11993188 19.42380117 -2.13358767 17.83687875 -2.15087891 16.25 C-2.17509001 13.97130753 -2.18647422 11.69285994 -2.1953125 9.4140625 C-2.20563507 8.70255035 -2.21595764 7.99103821 -2.22659302 7.25796509 C-2.22699422 5.50368335 -2.12202209 3.75003291 -2 2 C-1.34 1.34 -0.68 0.68 0 0 Z " fill="#FDEE89" transform="translate(173,175)"/>
<path d="M0 0 C6.78376359 5.55035203 12.85522968 11.76442027 19 18 C18.67 18.66 18.34 19.32 18 20 C17.34 19.34 16.68 18.68 16 18 C12.04 18 8.08 18 4 18 C3.67 29.22 3.34 40.44 3 52 C2.34 52 1.68 52 1 52 C1 40.78 1 29.56 1 18 C-5.93 18 -12.86 18 -20 18 C-20 18.66 -20 19.32 -20 20 C-19.34 20 -18.68 20 -18 20 C-18.33 20.66 -18.66 21.32 -19 22 C-20.5027237 21.02501855 -22.00211963 20.04490611 -23.5 19.0625 C-24.3353125 18.51722656 -25.170625 17.97195312 -26.03125 17.41015625 C-26.6809375 16.94480469 -27.330625 16.47945312 -28 16 C-28 15.67 -28 15.34 -28 15 C-18.43 15 -8.86 15 1 15 C0.67 10.05 0.34 5.1 0 0 Z " fill="#EEDD7D" transform="translate(130,83)"/>
<path d="M0 0 C5.754375 -0.0928125 5.754375 -0.0928125 11.625 -0.1875 C12.82334473 -0.21481201 14.02168945 -0.24212402 15.25634766 -0.27026367 C21.0043134 -0.31514703 25.15795456 -0.23652511 30 3 C29.34 3.33 28.68 3.66 28 4 C26.33052198 3.34040515 24.66424139 2.67269817 23 2 C20.49570535 1.64189679 20.49570535 1.64189679 17.91796875 1.5859375 C17.0777417 1.55032715 16.23751465 1.5147168 15.37182617 1.47802734 C14.32099854 1.44402832 13.2701709 1.4100293 12.1875 1.375 C8.825625 1.25125 5.46375 1.1275 2 1 C2 14.2 2 27.4 2 41 C5.3 41 8.6 41 12 41 C12 36.05 12 31.1 12 26 C13.32 26.33 14.64 26.66 16 27 C15.01 27 14.02 27 13 27 C13 31.95 13 36.9 13 42 C8.71 42 4.42 42 0 42 C0 38.04 0 34.08 0 30 C-1.98 30 -3.96 30 -6 30 C-5.505 31.546875 -5.505 31.546875 -5 33.125 C-3.84604985 36.73109421 -4 38.85406376 -4 43 C-8.62 43 -13.24 43 -18 43 C-18 46.96 -18 50.92 -18 55 C-18.99 55 -19.98 55 -21 55 C-21 48.07 -21 41.14 -21 34 C-23.64 34 -26.28 34 -29 34 C-29.144375 34.763125 -29.28875 35.52625 -29.4375 36.3125 C-30 39 -30 39 -31 42 C-35.29 42 -39.58 42 -44 42 C-43.67 40.68 -43.34 39.36 -43 38 C-43 38.99 -43 39.98 -43 41 C-39.37 41 -35.74 41 -32 41 C-31.855625 40.05125 -31.71125 39.1025 -31.5625 38.125 C-31 35 -31 35 -30 33 C-26.37 33 -22.74 33 -19 33 C-17 38 -17 38 -17 42 C-13.04 42 -9.08 42 -5 42 C-5.495 40.4325 -5.99 38.865 -6.5 37.25 C-7.57302699 33.8520812 -8 31.63361578 -8 28 C-5.36 28 -2.72 28 0 28 C0 18.76 0 9.52 0 0 Z " fill="#D8BD60" transform="translate(189,257)"/>
<path d="M0 0 C0.99 0 1.98 0 3 0 C3 12.21 3 24.42 3 37 C0.16443413 38.41778293 -1.9908706 37.86257622 -5.125 37.5625 C-7.06375 37.376875 -9.0025 37.19125 -11 37 C-11 40.96 -11 44.92 -11 49 C-14.63 49 -18.26 49 -22 49 C-22.66 47.68 -23.32 46.36 -24 45 C-23.01 45.66 -22.02 46.32 -21 47 C-18.36 47.33 -15.72 47.66 -13 48 C-13 34.8 -13 21.6 -13 8 C-16.3 8 -19.6 8 -23 8 C-22.835 9.258125 -22.67 10.51625 -22.5 11.8125 C-21.88926988 17.2144509 -21.90866436 22.57060338 -22 28 C-25.76488042 26.27845212 -28.15063897 24.00765886 -31 21 C-30.67 20.34 -30.34 19.68 -30 19 C-28.02 20.65 -26.04 22.3 -24 24 C-24 18.39 -24 12.78 -24 7 C-19.71 7 -15.42 7 -11 7 C-11 16.24 -11 25.48 -11 35 C-7.37 35 -3.74 35 0 35 C0 23.45 0 11.9 0 0 Z " fill="#EDDE7E" transform="translate(280,250)"/>
<path d="M0 0 C0.66 0.33 1.32 0.66 2 1 C1.03320312 1.85658203 1.03320312 1.85658203 0.046875 2.73046875 C-3.06289942 7.69779926 -2.67606268 12.56219277 -2.75 18.3125 C-2.79447266 19.99569336 -2.79447266 19.99569336 -2.83984375 21.71289062 C-2.91036253 24.47487614 -2.95746639 27.23744181 -3 30 C3.435 29.505 3.435 29.505 10 29 C9 31 9 31 6.75 32.3125 C3.6828316 34.19462607 1.50397305 36.43013293 -1 39 C-1.99 39.66 -2.98 40.32 -4 41 C-5.20450304 43.55183404 -5.20450304 43.55183404 -6 46 C-7 44 -7 44 -6 32 C-15.9 32.33 -25.8 32.66 -36 33 C-34.23433463 29.46866927 -33.02506669 27.78657357 -30.3046875 25.109375 C-29.23154297 24.04589844 -29.23154297 24.04589844 -28.13671875 22.9609375 C-27.39035156 22.23132813 -26.64398438 21.50171875 -25.875 20.75 C-25.12089844 20.00492188 -24.36679688 19.25984375 -23.58984375 18.4921875 C-21.73099228 16.6568658 -19.86762995 14.8263809 -18 13 C-17.34 13.33 -16.68 13.66 -16 14 C-16.75925781 14.81984375 -17.51851562 15.6396875 -18.30078125 16.484375 C-19.30478454 17.57282716 -20.3086854 18.66137382 -21.3125 19.75 C-21.81201172 20.28882812 -22.31152344 20.82765625 -22.82617188 21.3828125 C-23.31279297 21.91132812 -23.79941406 22.43984375 -24.30078125 22.984375 C-24.74591064 23.46616211 -25.19104004 23.94794922 -25.6496582 24.44433594 C-27.19148128 26.22059641 -28.58874698 28.11832931 -30 30 C-21.75 30 -13.5 30 -5 30 C-5 22.41 -5 14.82 -5 7 C-5.99 6.67 -6.98 6.34 -8 6 C-5.36 4.02 -2.72 2.04 0 0 Z " fill="#EDDD7C" transform="translate(211,68)"/>
<path d="M0 0 C1.37432457 3.81756824 0.67975039 7.07255329 0 11 C1.65 11 3.3 11 5 11 C5 11.99 5 12.98 5 14 C-6.55 14 -18.1 14 -30 14 C-27.94079582 24.44991343 -27.94079582 24.44991343 -25.5 34.8125 C-22.47175839 46.86137666 -20.73072646 58.55379474 -20.6875 71 C-20.68210205 71.94270752 -20.6767041 72.88541504 -20.67114258 73.85668945 C-20.75359608 81.98660486 -21.7222149 90.48037537 -25 98 C-26.485 98.495 -26.485 98.495 -28 99 C-27.71125 98.29875 -27.4225 97.5975 -27.125 96.875 C-19.42580892 77.19928946 -22.73667954 53.77330418 -28.2421875 33.80859375 C-30.17877593 26.63123765 -31.55550474 19.29061286 -33 12 C-33.66 12 -34.32 12 -35 12 C-35.33 10.35 -35.66 8.7 -36 7 C-35.01 7.495 -35.01 7.495 -34 8 C-34 8.99 -34 9.98 -34 11 C-23.77 11 -13.54 11 -3 11 C-3.495 6.545 -3.495 6.545 -4 2 C-3.505 3.485 -3.505 3.485 -3 5 C-2.34 5 -1.68 5 -1 5 C-0.67 3.35 -0.34 1.7 0 0 Z " fill="#EBCB69" transform="translate(163,124)"/>
<path d="M0 0 C6.52307692 1.47692308 6.52307692 1.47692308 8.9375 4.125 C9.288125 4.74375 9.63875 5.3625 10 6 C7.525 5.505 7.525 5.505 5 5 C5 14.9 5 24.8 5 35 C6.65 35 8.3 35 10 35 C9 37 9 37 6.96875 37.74609375 C5.32359118 38.20684234 3.67775485 38.66517864 2.03125 39.12109375 C1.3609375 39.41113281 0.690625 39.70117188 0 40 C-0.33 40.99 -0.66 41.98 -1 43 C-5.99783437 43.36020428 -8.98018872 42.34389935 -13.375 40 C-14.43460938 39.443125 -15.49421875 38.88625 -16.5859375 38.3125 C-17.38257813 37.879375 -18.17921875 37.44625 -19 37 C-19 36.34 -19 35.68 -19 35 C-12.07 35 -5.14 35 2 35 C1.88023292 30.33672864 1.757642 25.67371485 1.62768555 21.01074219 C1.58432759 19.42387343 1.54265313 17.83695776 1.50268555 16.25 C1.44500368 13.97121021 1.38130362 11.69265678 1.31640625 9.4140625 C1.29969376 8.70255035 1.28298126 7.99103821 1.26576233 7.25796509 C1.20278063 3.50339183 1.20278063 3.50339183 0 0 Z " fill="#EEDE7E" transform="translate(166,26)"/>
<path d="M0 0 C0.99 0 1.98 0 3 0 C3 7.59 3 15.18 3 23 C7.62 22.67 12.24 22.34 17 22 C15.63399635 24.73200731 13.7731665 24.97684927 11.05078125 26.0703125 C8.04743612 27.43182896 5.35611637 29.20902809 2.6015625 31.01171875 C1 32 1 32 0 32 C0 30.02 0 28.04 0 26 C-11.55 26 -23.1 26 -35 26 C-35 25.01 -35 24.02 -35 23 C-23.45 23 -11.9 23 0 23 C0 15.41 0 7.82 0 0 Z " fill="#F0E281" transform="translate(93,0)"/>
<path d="M0 0 C4.01130561 1.52682578 5.78586892 4.0014061 8.25 7.4375 C8.95640625 8.40558594 9.6628125 9.37367188 10.390625 10.37109375 C12 13 12 13 12 16 C11.34 15.34 10.68 14.68 10 14 C8.68 13.67 7.36 13.34 6 13 C6 20.92 6 28.84 6 37 C4.68 37 3.36 37 2 37 C2 33.04 2 29.08 2 25 C-2.29 25 -6.58 25 -11 25 C-11 24.67 -11 24.34 -11 24 C-7.04 24 -3.08 24 1 24 C0.835 23.01 0.67 22.02 0.5 21 C-0.39377749 14.05119475 -0.07635992 6.99117499 0 0 Z " fill="#F2E482" transform="translate(240,275)"/>
<path d="M0 0 C2.57644287 2.57644287 3.68769359 4.03273479 5.1875 7.1875 C5.53167969 7.90292969 5.87585938 8.61835938 6.23046875 9.35546875 C6.48441406 9.89816406 6.73835938 10.44085938 7 11 C6.5155542 11.3400708 6.0311084 11.6801416 5.53198242 12.03051758 C3.25626814 14.95612508 3.52050278 17.94990707 3.48828125 21.51171875 C3.47033005 22.23994339 3.45237885 22.96816803 3.43388367 23.71846008 C3.37975787 26.04141471 3.3458792 28.36416366 3.3125 30.6875 C3.27932875 32.26370051 3.24483927 33.83987388 3.20898438 35.41601562 C3.1240307 39.27719536 3.05723124 43.13831387 3 47 C2.01 47 1.02 47 0 47 C0 35.45 0 23.9 0 12 C-5.94 12 -11.88 12 -18 12 C-18 11.34 -18 10.68 -18 10 C-12.06 10 -6.12 10 0 10 C0 6.7 0 3.4 0 0 Z " fill="#EFE283" transform="translate(18,163)"/>
<path d="M0 0 C6.27 0 12.54 0 19 0 C19 5.61 19 11.22 19 17 C17.35 15.68 15.7 14.36 14 13 C12.2860291 12.01605374 10.57168545 11.03262042 8.84765625 10.06640625 C5.66984182 8.23227657 2.85186226 6.32805083 0 4 C0 2.68 0 1.36 0 0 Z " fill="#FBEA84" transform="translate(224,26)"/>
<path d="M0 0 C2.31 0 4.62 0 7 0 C7 11.55 7 23.1 7 35 C5.35 35 3.7 35 2 35 C1.97494385 34.29504395 1.9498877 33.59008789 1.92407227 32.86376953 C1.80681958 29.61738553 1.6846885 26.37120183 1.5625 23.125 C1.52318359 22.01640625 1.48386719 20.9078125 1.44335938 19.765625 C1.19015781 13.1434301 0.75898051 6.58403955 0 0 Z " fill="#FCEC89" transform="translate(273,100)"/>
<path d="M0 0 C0.66 0.33 1.32 0.66 2 1 C1.67 1.33 1.34 1.66 1 2 C0.87341778 4.65822657 0.81479786 7.27887424 0.8125 9.9375 C0.79413086 11.0502832 0.79413086 11.0502832 0.77539062 12.18554688 C0.77011522 14.12513629 0.87811098 16.0642371 1 18 C1.66 18.66 2.32 19.32 3 20 C1.68 20 0.36 20 -1 20 C-1 19.34 -1 18.68 -1 18 C-2.175625 17.7525 -3.35125 17.505 -4.5625 17.25 C-8.90806003 16.18103871 -12.21724066 14.36422459 -16 12 C-16 11.01 -16 10.02 -16 9 C-14.71086513 8.32845067 -13.41859796 7.66291141 -12.125 7 C-11.40570313 6.62875 -10.68640625 6.2575 -9.9453125 5.875 C-8 5 -8 5 -6 5 C-6 4.34 -6 3.68 -6 3 C-4.03533587 1.93224776 -2.03144641 0.93446535 0 0 Z " fill="#FBE881" transform="translate(133,37)"/>
<path d="M0 0 C1.3103187 3.66583112 0.67143208 6.10749078 -0.36328125 9.8046875 C-0.67257568 10.93825684 -0.98187012 12.07182617 -1.30053711 13.23974609 C-1.80145874 15.03919678 -1.80145874 15.03919678 -2.3125 16.875 C-7.60633867 36.7064241 -11.76786699 57.96576688 -5 78 C-4.690625 79.19625 -4.38125 80.3925 -4.0625 81.625 C-3.19945547 84.13911794 -3.19945547 84.13911794 -0.9375 85.3125 C-0.298125 85.539375 0.34125 85.76625 1 86 C1.33 86.33 1.66 86.66 2 87 C8.03357931 87.45790557 14.02136775 86.7591914 20 86 C15.5864318 88.28288011 12.10766876 89.17544635 7.125 89.25 C6.09632813 89.27578125 5.06765625 89.3015625 4.0078125 89.328125 C0.54016837 88.94983655 -1.24055541 88.10903824 -4 86 C-5.29296875 84.16796875 -5.29296875 84.16796875 -6.1875 82.1875 C-6.49042969 81.54167969 -6.79335937 80.89585937 -7.10546875 80.23046875 C-9.18419505 75.04726912 -10.25979785 70.73612717 -10.30078125 65.1171875 C-10.30628998 64.46904587 -10.31179871 63.82090424 -10.31747437 63.15312195 C-10.32912162 61.06019073 -10.32287244 58.96793138 -10.3125 56.875 C-10.31134186 56.1615744 -10.31018372 55.4481488 -10.30899048 54.71310425 C-10.26010797 39.50466627 -9.991864 22.86523271 -2.9753418 8.97094727 C-1.55523781 6.10123525 -0.8300863 3.0831777 0 0 Z " fill="#E3AF49" transform="translate(191,140)"/>
<path d="M0 0 C8.25 0 16.5 0 25 0 C25 2.97 25 5.94 25 9 C24.67 9 24.34 9 24 9 C24 6.36 24 3.72 24 1 C16.41 1 8.82 1 1 1 C1 14.2 1 27.4 1 41 C8.26 41 15.52 41 23 41 C23 38.69 23 36.38 23 34 C19.04 34 15.08 34 11 34 C11 30.7 11 27.4 11 24 C14.3 24 17.6 24 21 24 C21 22.02 21 20.04 21 18 C17.7 18 14.4 18 11 18 C11 17.67 11 17.34 11 17 C14.96 17 18.92 17 23 17 C23 19.97 23 22.94 23 26 C19.37 26 15.74 26 12 26 C12 28.31 12 30.62 12 33 C15.96 33 19.92 33 24 33 C24 35.97 24 38.94 24 42 C16.08 42 8.16 42 0 42 C0 28.14 0 14.28 0 0 Z " fill="#C7A248" transform="translate(115,257)"/>
<path d="M0 0 C0.66 0 1.32 0 2 0 C2 9.24 2 18.48 2 28 C7.28 28 12.56 28 18 28 C18 18.76 18 9.52 18 0 C18.33 0 18.66 0 19 0 C19 13.86 19 27.72 19 42 C18.67 42 18.34 42 18 42 C18 38.37 18 34.74 18 31 C16.68 31 15.36 31 14 31 C14.33 31.66 14.66 32.32 15 33 C15.06950541 34.54023996 15.08452357 36.08334988 15.0625 37.625 C15.05347656 38.44226563 15.04445313 39.25953125 15.03515625 40.1015625 C15.02355469 40.72804688 15.01195313 41.35453125 15 42 C14.34 42 13.68 42 13 42 C13 39.03 13 36.06 13 33 C9.04 33 5.08 33 1 33 C0.67 22.11 0.34 11.22 0 0 Z " fill="#EEDB7A" transform="translate(96,257)"/>
<path d="M0 0 C0.66 0 1.32 0 2 0 C2 14.19 2 28.38 2 43 C8.93 43 15.86 43 23 43 C24 44 24 44 24.09765625 46.06640625 C24.08605469 46.89011719 24.07445313 47.71382813 24.0625 48.5625 C24.05347656 49.38878906 24.04445313 50.21507812 24.03515625 51.06640625 C24.02355469 51.70449219 24.01195313 52.34257812 24 53 C23.67 53 23.34 53 23 53 C23 50.36 23 47.72 23 45 C15.08 45 7.16 45 -1 45 C-0.67 30.15 -0.34 15.3 0 0 Z " fill="#E7D476" transform="translate(56,213)"/>
<path d="M0 0 C17.82 0 35.64 0 54 0 C54 3.96 54 7.92 54 12 C53.67 12 53.34 12 53 12 C53 8.37 53 4.74 53 1 C42.44 1 31.88 1 21 1 C21 8.92 21 16.84 21 25 C20.01 25 19.02 25 18 25 C18 17.08 18 9.16 18 1 C12.06 1 6.12 1 0 1 C0 0.67 0 0.34 0 0 Z " fill="#F2E583" transform="translate(0,287)"/>
<path d="M0 0 C0 3.77205888 -0.98065019 4.36660525 -3.4375 7.125 C-7.26041909 11.81886639 -7.90497287 15.01329099 -8 21 C-6.68 21.33 -5.36 21.66 -4 22 C-5.28965176 23.37562854 -6.62689293 24.70766393 -8 26 C-8.66 26 -9.32 26 -10 26 C-10 26.66 -10 27.32 -10 28 C-10.66 27.67 -11.32 27.34 -12 27 C-11.67 26.01 -11.34 25.02 -11 24 C-11.68707031 24.0721875 -12.37414062 24.144375 -13.08203125 24.21875 C-14.43361328 24.35796875 -14.43361328 24.35796875 -15.8125 24.5 C-16.70582031 24.5928125 -17.59914062 24.685625 -18.51953125 24.78125 C-21 25 -21 25 -24 25 C-23.02160156 24.11699219 -22.04320312 23.23398438 -21.03515625 22.32421875 C-13.34651353 15.31136055 -6.27710851 8.33545574 0 0 Z " fill="#F2DE87" transform="translate(254,189)"/>
<path d="M0 0 C1 2 1 2 0.00390625 5.4765625 C-0.46900047 6.86197936 -0.94981644 8.24471547 -1.4375 9.625 C-1.68048828 10.33140625 -1.92347656 11.0378125 -2.17382812 11.765625 C-2.77587205 13.51273287 -3.38708017 15.25667786 -4 17 C-4.87840996 13.90279155 -4.99435406 12.09354597 -4 9 C-6.31 9 -8.62 9 -11 9 C-11 12.96 -11 16.92 -11 21 C-11.33 21 -11.66 21 -12 21 C-12 18.03 -12 15.06 -12 12 C-15.96 12 -19.92 12 -24 12 C-24 9.69 -24 7.38 -24 5 C-20.7 5 -17.4 5 -14 5 C-14 5.33 -14 5.66 -14 6 C-10.04 6.33 -6.08 6.66 -2 7 C-1.855625 6.030625 -1.71125 5.06125 -1.5625 4.0625 C-1 1 -1 1 0 0 Z " fill="#E8D575" transform="translate(151,278)"/>
<path d="M0 0 C0 3.29022709 -0.10774733 6.56701458 -0.21875 9.85546875 C-0.24094604 10.51710526 -0.26314209 11.17874176 -0.28601074 11.86042786 C-0.35687093 13.96946802 -0.42842651 16.07848393 -0.5 18.1875 C-0.54822295 19.61913908 -0.59640057 21.05077969 -0.64453125 22.48242188 C-0.7624952 25.98829912 -0.88108275 29.49415495 -1 33 C0.98 33 2.96 33 5 33 C5 33.33 5 33.66 5 34 C-2.92 34 -10.84 34 -19 34 C-19 33.67 -19 33.34 -19 33 C-13.72 33 -8.44 33 -3 33 C-3 24.09 -3 15.18 -3 6 C-5.330625 6.061875 -7.66125 6.12375 -10.0625 6.1875 C-15.72313348 6.26238255 -20.05956217 5.89196361 -25 3 C-22.34674962 1.67337481 -21.22398161 2.29436988 -18.375 3 C-12.33633273 4.28092942 -7.6292781 4.36941568 -2 1.4375 C-1.34 0.963125 -0.68 0.48875 0 0 Z " fill="#E9CF6D" transform="translate(134,223)"/>
<path d="M0 0 C24.609375 -0.1953125 24.609375 -0.1953125 29 2 C29.23576736 9.62314474 28.83717315 16.58569409 27 24 C26.67 24 26.34 24 26 24 C26.14330577 21.9998173 26.28978294 19.99986175 26.4375 18 C26.51871094 16.88625 26.59992188 15.7725 26.68359375 14.625 C27.0226935 10.74000532 27.5162936 6.8696512 28 3 C19.09 2.34 10.18 1.68 1 1 C1.33 1.99 1.66 2.98 2 4 C2.22914946 7.18305925 2.18981447 10.37200043 2.1875 13.5625 C2.18814453 14.46258789 2.18878906 15.36267578 2.18945312 16.29003906 C2.14052534 22.43492466 1.58935714 28.03991073 0 34 C-0.66 34 -1.32 34 -2 34 C-2 29.38 -2 24.76 -2 20 C-1.01 19.67 -0.02 19.34 1 19 C0.67 12.73 0.34 6.46 0 0 Z " fill="#F6E191" transform="translate(285,118)"/>
<path d="M0 0 C0 4.29 0 8.58 0 13 C-4.95 13 -9.9 13 -15 13 C-15 12.01 -15 11.02 -15 10 C-13.42578125 8.53515625 -13.42578125 8.53515625 -11.3125 7.0625 C-8.83648864 5.30518928 -6.46979426 3.56200395 -4.125 1.625 C-2 0 -2 0 0 0 Z " fill="#FDED8B" transform="translate(280,198)"/>
<path d="M0 0 C3.96 0 7.92 0 12 0 C12 13.86 12 27.72 12 42 C8.7 42 5.4 42 2 42 C1.34 40.68 0.68 39.36 0 38 C0.99 38.66 1.98 39.32 3 40 C5.64 40.33 8.28 40.66 11 41 C11 27.8 11 14.6 11 1 C7.7 1 4.4 1 1 1 C1.165 2.258125 1.33 3.51625 1.5 4.8125 C2.11073012 10.2144509 2.09133564 15.57060338 2 21 C-1.76488042 19.27845212 -4.15063897 17.00765886 -7 14 C-6.67 13.34 -6.34 12.68 -6 12 C-4.02 13.65 -2.04 15.3 0 17 C0 11.39 0 5.78 0 0 Z " fill="#CEAC51" transform="translate(256,257)"/>
<path d="M0 0 C6.42210386 -0.48468708 6.42210386 -0.48468708 8.9375 1.625 C10.32183811 4.71940283 10.57023595 6.64986379 10 10 C6.43039598 13.05966059 4.86822069 13 0 13 C0 8.71 0 4.42 0 0 Z " fill="#EDDB7B" transform="translate(201,265)"/>
<path d="M0 0 C4.01130561 1.52682578 5.78586892 4.0014061 8.25 7.4375 C8.95640625 8.40558594 9.6628125 9.37367188 10.390625 10.37109375 C12 13 12 13 12 16 C11.62875 15.505 11.2575 15.01 10.875 14.5 C8.25305607 12.40244486 6.26157528 12.78256165 3 13 C2.67 16.63 2.34 20.26 2 24 C1.67 24 1.34 24 1 24 C-0.32915021 16.02509872 -0.08801359 8.05813281 0 0 Z " fill="#E2CC6D" transform="translate(240,275)"/>
<path d="M0 0 C0.99 0 1.98 0 3 0 C3.495 4.455 3.495 4.455 4 9 C5.98 9.33 7.96 9.66 10 10 C10 10.33 10 10.66 10 11 C-2.87 11.33 -15.74 11.66 -29 12 C-29 11.67 -29 11.34 -29 11 C-19.34346884 8.61777205 -9.86674975 8.80461882 0 9 C0 6.03 0 3.06 0 0 Z " fill="#F1D570" transform="translate(168,0)"/>
<path d="M0 0 C0.99 0.33 1.98 0.66 3 1 C3 5.95 3 10.9 3 16 C1.35 14.68 -0.3 13.36 -2 12 C-5.63 11.67 -9.26 11.34 -13 11 C-13 19.91 -13 28.82 -13 38 C-13.33 38 -13.66 38 -14 38 C-14.02465881 34.03069011 -14.04284023 30.06140966 -14.05493164 26.09204102 C-14.05997057 24.74079614 -14.06680177 23.38955674 -14.07543945 22.03833008 C-14.08752419 20.09979566 -14.09269828 18.161222 -14.09765625 16.22265625 C-14.10289307 15.05484619 -14.10812988 13.88703613 -14.11352539 12.68383789 C-14 10 -14 10 -13 9 C-11.16884117 8.90148829 -9.33380067 8.87027371 -7.5 8.875 C-6.4996875 8.87242187 -5.499375 8.86984375 -4.46875 8.8671875 C-2 9 -2 9 -1 10 C-0.67 6.7 -0.34 3.4 0 0 Z " fill="#E3CD6E" transform="translate(243,247)"/>
<path d="M0 0 C0.33 0 0.66 0 1 0 C1 13.86 1 27.72 1 42 C0.67 42 0.34 42 0 42 C0 38.04 0 34.08 0 30 C-1.98 30 -3.96 30 -6 30 C-5.67 31.03125 -5.34 32.0625 -5 33.125 C-3.84604985 36.73109421 -4 38.85406376 -4 43 C-8.29 43 -12.58 43 -17 43 C-17 42.67 -17 42.34 -17 42 C-13.04 42 -9.08 42 -5 42 C-5.495 40.4325 -5.99 38.865 -6.5 37.25 C-7.57302699 33.8520812 -8 31.63361578 -8 28 C-5.36 28 -2.72 28 0 28 C0 18.76 0 9.52 0 0 Z " fill="#ECD977" transform="translate(189,257)"/>
<path d="M0 0 C0.66 0.33 1.32 0.66 2 1 C1.67 10.57 1.34 20.14 1 30 C-4.94 30 -10.88 30 -17 30 C-17 29.67 -17 29.34 -17 29 C-12.05 29 -7.1 29 -2 29 C-1.67 20.09 -1.34 11.18 -1 2 C-1.66 1.67 -2.32 1.34 -3 1 C-2.01 0.67 -1.02 0.34 0 0 Z " fill="#ECDC7C" transform="translate(207,227)"/>
<path d="M0 0 C0.33 0.99 0.66 1.98 1 3 C2.35544922 3.07347656 2.35544922 3.07347656 3.73828125 3.1484375 C5.50751953 3.26058594 5.50751953 3.26058594 7.3125 3.375 C8.48425781 3.44460937 9.65601563 3.51421875 10.86328125 3.5859375 C14 4 14 4 17 6 C16.02546875 5.93941406 15.0509375 5.87882812 14.046875 5.81640625 C-0.29255268 4.95838849 -14.64359259 4.47711506 -29 4 C-29 3.34 -29 2.68 -29 2 C-28.15703369 1.97494385 -27.31406738 1.9498877 -26.44555664 1.92407227 C-23.32758326 1.82911845 -20.20978497 1.72987552 -17.09204102 1.62768555 C-15.74085853 1.58428777 -14.38961947 1.5426163 -13.03833008 1.50268555 C-11.09963299 1.44510048 -9.16113724 1.38085702 -7.22265625 1.31640625 C-6.05484619 1.27974854 -4.88703613 1.24309082 -3.68383789 1.20532227 C-1.08220205 1.29923812 -1.08220205 1.29923812 0 0 Z " fill="#ECD579" transform="translate(50,96)"/>
<path d="M0 0 C2.64 0 5.28 0 8 0 C8 4.95 8 9.9 8 15 C3.95567903 10.95567903 2.02802344 9.01668956 0 4 C0 2.68 0 1.36 0 0 Z " fill="#FAEB8A" transform="translate(48,175)"/>
<path d="M0 0 C2.64 0 5.28 0 8 0 C8 0.33 8 0.66 8 1 C6.02 1.33 4.04 1.66 2 2 C2.268125 3.216875 2.53625 4.43375 2.8125 5.6875 C2.99167969 6.52539062 3.17085937 7.36328125 3.35546875 8.2265625 C3.77885714 10.04841556 4.25945007 11.85808366 4.80078125 13.6484375 C8.89751477 28.13262333 8.58539785 45.40230874 5 60 C4.67 60 4.34 60 4 60 C3.87381703 52.55520505 3.87381703 52.55520505 4.48828125 49.8515625 C6.98152799 35.95789746 5.43375182 20.4418767 0.25 7.375 C-1.02437617 3.93418435 -1.05649257 3.26941619 0 0 Z " fill="#E3AE5E" transform="translate(245,103)"/>
<path d="M0 0 C6.27 0 12.54 0 19 0 C19 0.99 19 1.98 19 3 C18.34 3 17.68 3 17 3 C16.67 3.99 16.34 4.98 16 6 C9.75276774 6.82200425 5.28682163 3.92551394 0 1 C0 0.67 0 0.34 0 0 Z " fill="#FBEE91" transform="translate(149,63)"/>
<path d="M0 0 C3 4 3 4 4.0625 6.1875 C4.86702161 8.17892157 4.86702161 8.17892157 7 9 C8.70363822 9.22622081 10.41328701 9.40888473 12.125 9.5625 C13.03507813 9.64628906 13.94515625 9.73007812 14.8828125 9.81640625 C15.93082031 9.90728516 15.93082031 9.90728516 17 10 C16.67 8.35 16.34 6.7 16 5 C16.66 5.33 17.32 5.66 18 6 C18 7.65 18 9.3 18 11 C15.89611431 11.05402274 13.79183286 11.09280256 11.6875 11.125 C9.92986328 11.15980469 9.92986328 11.15980469 8.13671875 11.1953125 C5 11 5 11 2 9 C2 13.62 2 18.24 2 23 C1.34 23 0.68 23 0 23 C0 15.41 0 7.82 0 0 Z " fill="#EAD879" transform="translate(206,289)"/>
<path d="M0 0 C0.66 0 1.32 0 2 0 C3.33583899 4.84241633 4.25328119 8.93437617 4 14 C1.69 14 -0.62 14 -3 14 C-2.88570603 12.22844346 -2.75816963 10.45773771 -2.625 8.6875 C-2.55539063 7.70136719 -2.48578125 6.71523438 -2.4140625 5.69921875 C-2 3 -2 3 0 0 Z " fill="#ECD775" transform="translate(164,269)"/>
<path d="M0 0 C0.33 0 0.66 0 1 0 C1 6.27 1 12.54 1 19 C-0.65 19 -2.3 19 -4 19 C-3.40546697 5.18223235 -3.40546697 5.18223235 0 0 Z " fill="#FCEC87" transform="translate(167,116)"/>
<path d="M0 0 C0.66 0.33 1.32 0.66 2 1 C1.67 1.33 1.34 1.66 1 2 C0.87341778 4.65822657 0.81479786 7.27887424 0.8125 9.9375 C0.80025391 10.67935547 0.78800781 11.42121094 0.77539062 12.18554688 C0.77011522 14.12513629 0.87811098 16.0642371 1 18 C1.66 18.66 2.32 19.32 3 20 C1.68 20 0.36 20 -1 20 C-1 19.34 -1 18.68 -1 18 C-3.64 17.34 -6.28 16.68 -9 16 C-5 15 -5 15 -3 16 C-3 12.04 -3 8.08 -3 4 C-3.99 3.67 -4.98 3.34 -6 3 C-4.03533587 1.93224776 -2.03144641 0.93446535 0 0 Z " fill="#EED875" transform="translate(133,37)"/>
<path d="M0 0 C3.36637397 1.4427317 5.66502571 3.16467407 8 6 C8 7.32 8 8.64 8 10 C5.03 10 2.06 10 -1 10 C-1.09765625 3.06640625 -1.09765625 3.06640625 -1 1 C-0.67 0.67 -0.34 0.34 0 0 Z " fill="#FBEB86" transform="translate(134,88)"/>
<path d="M0 0 C0 2.31 0 4.62 0 7 C-4.29 7 -8.58 7 -13 7 C-10.16353181 1.32706362 -6.32712602 -0.55827583 0 0 Z " fill="#FAEA84" transform="translate(243,54)"/>
<path d="M0 0 C4.29 0 8.58 0 13 0 C13 0.33 13 0.66 13 1 C11.02 1 9.04 1 7 1 C7 2.98 7 4.96 7 7 C8.32 7.33 9.64 7.66 11 8 C7.37 8 3.74 8 0 8 C0 5.36 0 2.72 0 0 Z " fill="#E2CB6D" transform="translate(126,266)"/>
<path d="M0 0 C0.99 0 1.98 0 3 0 C3.33 6.6 3.66 13.2 4 20 C0.7 19.01 -2.6 18.02 -6 17 C-2 16 -2 16 0 17 C0 11.39 0 5.78 0 0 Z " fill="#F0E07F" transform="translate(205,0)"/>
<path d="M0 0 C7.92 0 15.84 0 24 0 C24 0.33 24 0.66 24 1 C19.71 1 15.42 1 11 1 C11 4.96 11 8.92 11 13 C10.01 13 9.02 13 8 13 C8 9.04 8 5.08 8 1 C5.36 1 2.72 1 0 1 C0 0.67 0 0.34 0 0 Z " fill="#EEDE7D" transform="translate(85,299)"/>
<path d="M0 0 C0.99 0 1.98 0 3 0 C3.99020864 3.20142644 4.0200144 5.79985601 3.6875 9.125 C3.56955078 10.42824219 3.56955078 10.42824219 3.44921875 11.7578125 C3 14 3 14 1 16 C-2.0390625 16.1953125 -2.0390625 16.1953125 -5.625 16.125 C-6.81351563 16.10695313 -8.00203125 16.08890625 -9.2265625 16.0703125 C-10.14179688 16.04710937 -11.05703125 16.02390625 -12 16 C-12 15.67 -12 15.34 -12 15 C-8.04 15 -4.08 15 0 15 C0 10.05 0 5.1 0 0 Z " fill="#F6E581" transform="translate(202,284)"/>
<path d="M0 0 C0.33 0 0.66 0 1 0 C1.33 10.23 1.66 20.46 2 31 C-1.63 30.67 -5.26 30.34 -9 30 C-9 29.01 -9 28.02 -9 27 C-6.03 27 -3.06 27 0 27 C0 18.09 0 9.18 0 0 Z " fill="#F0D875" transform="translate(180,183)"/>
<path d="M0 0 C4.2742558 1.5830577 6.26531794 4.50568404 9 8 C6.56292912 8.2757817 4.12904951 8.52131492 1.6875 8.75 C0.99720703 8.83121094 0.30691406 8.91242188 -0.40429688 8.99609375 C-2.42578125 9.171875 -2.42578125 9.171875 -6 9 C-6.99 7.68 -7.98 6.36 -9 5 C-3.06 4.505 -3.06 4.505 3 4 C2.01 2.68 1.02 1.36 0 0 Z " fill="#EFDE83" transform="translate(81,205)"/>
<path d="M0 0 C1 3 1 3 0.22265625 5.04296875 C-0.35162109 6.10451172 -0.35162109 6.10451172 -0.9375 7.1875 C-1.31777344 7.90292969 -1.69804687 8.61835938 -2.08984375 9.35546875 C-2.39019531 9.89816406 -2.69054687 10.44085938 -3 11 C-3.33 10.01 -3.66 9.02 -4 8 C-9.55016934 7.97333829 -9.55016934 7.97333829 -14.08984375 10.84765625 C-15.81359868 12.84636596 -17.44556438 14.86750863 -19 17 C-19.33 16.34 -19.66 15.68 -20 15 C-18.84566363 12.01796439 -17.28169765 10.18662692 -15 8 C-14.34 7.01 -13.68 6.02 -13 5 C-9.37 5.33 -5.74 5.66 -2 6 C-1.34 4.02 -0.68 2.04 0 0 Z " fill="#F2E088" transform="translate(278,167)"/>
<path d="M0 0 C-0.886875 0.5775 -1.77375 1.155 -2.6875 1.75 C-4.82821092 3.16701905 -6.75223417 4.61546432 -8.75 6.25 C-11 8 -11 8 -13 8 C-13 5.36 -13 2.72 -13 0 C-11.20909747 -0.19466332 -9.41723495 -0.38051213 -7.625 -0.5625 C-6.12839844 -0.71912109 -6.12839844 -0.71912109 -4.6015625 -0.87890625 C-2 -1 -2 -1 0 0 Z " fill="#EFDD7B" transform="translate(221,98)"/>
<path d="M0 0 C2.31 0 4.62 0 7 0 C7 0.66 7 1.32 7 2 C5.35 2 3.7 2 2 2 C2 4.97 2 7.94 2 11 C4.64 10.01 7.28 9.02 10 8 C9 11 9 11 7.25 12.1875 C5 13 5 13 0 13 C0 8.71 0 4.42 0 0 Z " fill="#D0B055" transform="translate(201,265)"/>
<path d="M0 0 C0.33 0 0.66 0 1 0 C1.66 6.27 2.32 12.54 3 19 C-0.63 18.67 -4.26 18.34 -8 18 C-8 17.01 -8 16.02 -8 15 C-5.03 15 -2.06 15 1 15 C0.835 14.195625 0.67 13.39125 0.5 12.5625 C-0.09247348 8.34112648 -0.08506709 4.25335455 0 0 Z " fill="#F2E188" transform="translate(8,120)"/>
<path d="M0 0 C0 3.14535949 -0.10496314 6.27460661 -0.21875 9.41796875 C-0.26386719 10.67158203 -0.30898437 11.92519531 -0.35546875 13.21679688 C-0.40316406 14.52712891 -0.45085937 15.83746094 -0.5 17.1875 C-0.54822626 18.52278468 -0.59640391 19.85807112 -0.64453125 21.19335938 C-0.762542 24.4622572 -0.8810517 27.73113618 -1 31 C-1.33 31 -1.66 31 -2 31 C-2.33 24.4 -2.66 17.8 -3 11 C-3.99 11.66 -4.98 12.32 -6 13 C-3.10933941 3.40546697 -3.10933941 3.40546697 0 0 Z " fill="#F0DA76" transform="translate(172,104)"/>
<path d="M0 0 C3.96 0 7.92 0 12 0 C12 4.62 12 9.24 12 14 C11.67 14 11.34 14 11 14 C11 10.04 11 6.08 11 2 C8.36 2 5.72 2 3 2 C3.66 4.31 4.32 6.62 5 9 C1.39760962 5.86243419 1.0042756 5.02137798 0 0 Z " fill="#E6D172" transform="translate(217,285)"/>
<path d="M0 0 C3.63 0 7.26 0 11 0 C11.33 1.65 11.66 3.3 12 5 C11.34 4.34 10.68 3.68 10 3 C7.79749008 2.53993654 7.79749008 2.53993654 5.375 2.375 C4.14910156 2.26285156 4.14910156 2.26285156 2.8984375 2.1484375 C2.27195313 2.09945313 1.64546875 2.05046875 1 2 C0.87625 2.7425 0.7525 3.485 0.625 4.25 C0.04513299 6.80141485 -0.73708739 8.7267573 -2 11 C-3 9 -3 9 -2.44140625 6.8359375 C-1.62760417 4.55729167 -0.81380208 2.27864583 0 0 Z " fill="#BE953E" transform="translate(159,257)"/>
<path d="M0 0 C0.99 0.33 1.98 0.66 3 1 C3 1.66 3 2.32 3 3 C3.639375 3.309375 4.27875 3.61875 4.9375 3.9375 C7 5 7 5 8 6 C14.03357931 6.45790557 20.02136775 5.7591914 26 5 C21.5864318 7.28288011 18.10766876 8.17544635 13.125 8.25 C11.58199219 8.28867188 11.58199219 8.28867188 10.0078125 8.328125 C6.571931 7.95330156 4.7479747 7.06464174 2 5 C0.6875 2.3125 0.6875 2.3125 0 0 Z " fill="#E6B650" transform="translate(185,221)"/>
<path d="M0 0 C0.66 0.33 1.32 0.66 2 1 C0.23304141 2.96195402 -1.53831789 4.91959627 -3.3125 6.875 C-3.81201172 7.43058594 -4.31152344 7.98617187 -4.82617188 8.55859375 C-7.1087156 11.06788023 -9.16360168 13.10906778 -12 15 C-11.58685438 10.55073948 -8.49538473 8.15899896 -5.4375 5.25 C-4.91736328 4.74339844 -4.39722656 4.23679687 -3.86132812 3.71484375 C-2.58089916 2.46965595 -1.29132446 1.23388498 0 0 Z " fill="#F6DA73" transform="translate(193,81)"/>
<path d="M0 0 C0.33 0.66 0.66 1.32 1 2 C2.32 1.67 3.64 1.34 5 1 C2.53706093 5.31014337 -1.41252807 7.41240356 -6 9 C-6.66 8.67 -7.32 8.34 -8 8 C-5.36 5.36 -2.72 2.72 0 0 Z " fill="#EDCA7B" transform="translate(225,214)"/>
<path d="M0 0 C0.99 0.495 0.99 0.495 2 1 C2 1.99 2 2.98 2 4 C3.32 4 4.64 4 6 4 C6.33848652 5.89492006 6.67056911 7.79098466 7 9.6875 C7.185625 10.74324219 7.37125 11.79898438 7.5625 12.88671875 C7.95068074 15.64904062 8.08259976 18.21742043 8 21 C6.53508849 18.20392978 5.37754078 15.42993234 4.375 12.4375 C4.11460937 11.67308594 3.85421875 10.90867188 3.5859375 10.12109375 C3 8 3 8 3 5 C2.34 5 1.68 5 1 5 C0.67 3.35 0.34 1.7 0 0 Z " fill="#E7CF6E" transform="translate(127,131)"/>
<path d="M0 0 C4.875 4.625 4.875 4.625 6 8 C4.02 8 2.04 8 0 8 C0 5.36 0 2.72 0 0 Z " fill="#F2E381" transform="translate(241,277)"/>
<path d="M0 0 C1.5 1.3125 1.5 1.3125 3 3 C3 3.99 3 4.98 3 6 C1.37536158 6.05395478 -0.24978541 6.09277195 -1.875 6.125 C-2.77992188 6.14820313 -3.68484375 6.17140625 -4.6171875 6.1953125 C-7 6 -7 6 -9 4 C-5.7 4 -2.4 4 1 4 C0.67 2.68 0.34 1.36 0 0 Z " fill="#B68A34" transform="translate(220,293)"/>
<path d="M0 0 C0.99 1.32 1.98 2.64 3 4 C1.68 4 0.36 4 -1 4 C-0.67 4.99 -0.34 5.98 0 7 C-2.31 8.98 -4.62 10.96 -7 13 C-5.35821735 8.22390502 -2.73453298 4.20617096 0 0 Z " fill="#F6E38F" transform="translate(300,169)"/>
<path d="M0 0 C0.99 0 1.98 0 3 0 C3 2.97 3 5.94 3 9 C2.01 9 1.02 9 0 9 C0 6.03 0 3.06 0 0 Z " fill="#F9EB86" transform="translate(203,267)"/>
<path d="M0 0 C0.66 0.33 1.32 0.66 2 1 C1.34 1.66 0.68 2.32 0 3 C0.33 3.66 0.66 4.32 1 5 C-2.80504787 6.79682816 -3.70600835 7.07349791 -8 6 C-5.36 4.02 -2.72 2.04 0 0 Z " fill="#F6DE94" transform="translate(239,218)"/>
<path d="M0 0 C0.66 0.33 1.32 0.66 2 1 C-0.23407889 4.35111834 -1.26215824 5.81553956 -5.25 6.8125 C-6.61125 6.9053125 -6.61125 6.9053125 -8 7 C-5.42215154 4.35247996 -3.08351902 2.05567935 0 0 Z " fill="#EFD06A" transform="translate(211,68)"/>
<path d="M0 0 C0.66 0.33 1.32 0.66 2 1 C1.34 1.66 0.68 2.32 0 3 C3.96 3.33 7.92 3.66 12 4 C12 4.33 12 4.66 12 5 C7.05 5 2.1 5 -3 5 C-3 4.01 -3 3.02 -3 2 C-2.01 1.34 -1.02 0.68 0 0 Z " fill="#F4E388" transform="translate(268,206)"/>
<path d="M0 0 C0 1.98 0 3.96 0 6 C-1.98 6 -3.96 6 -6 6 C-6 5.01 -6 4.02 -6 3 C-1.66666667 0 -1.66666667 0 0 0 Z " fill="#F8E887" transform="translate(243,205)"/>
<path d="M0 0 C3.26008643 3.16952847 6.22237877 6.39937989 9 10 C8.67 10.66 8.34 11.32 8 12 C7.566875 11.525625 7.13375 11.05125 6.6875 10.5625 C4.97690387 8.76313043 4.97690387 8.76313043 2 8 C1.855625 7.236875 1.71125 6.47375 1.5625 5.6875 C1.0367406 2.91827092 1.0367406 2.91827092 0 0 Z " fill="#DAC164" transform="translate(244,279)"/>
<path d="M0 0 C1.32 0 2.64 0 4 0 C4 1.98 4 3.96 4 6 C2.68 6 1.36 6 0 6 C0 4.02 0 2.04 0 0 Z " fill="#EFE07F" transform="translate(127,283)"/>
<path d="M0 0 C1.32 0 2.64 0 4 0 C4 1.98 4 3.96 4 6 C2.68 6 1.36 6 0 6 C0 4.02 0 2.04 0 0 Z " fill="#F8E884" transform="translate(127,267)"/>
<path d="M0 0 C7.57142857 1.85714286 7.57142857 1.85714286 10 5 C7.36 5 4.72 5 2 5 C1.34 3.35 0.68 1.7 0 0 Z " fill="#E7CC6B" transform="translate(91,58)"/>
<path d="M0 0 C0.99 0 1.98 0 3 0 C3.33 1.32 3.66 2.64 4 4 C3.01 3.67 2.02 3.34 1 3 C1 6.96 1 10.92 1 15 C0.67 15 0.34 15 0 15 C0 10.05 0 5.1 0 0 Z " fill="#E4CE6F" transform="translate(202,284)"/>
<path d="M0 0 C1.45606519 4.52092968 0.27032841 7.51648796 -1 12 C-3.29633824 8.55549263 -3.54016485 6.06187717 -4 2 C-3.67 2.99 -3.34 3.98 -3 5 C-2.34 5 -1.68 5 -1 5 C-0.67 3.35 -0.34 1.7 0 0 Z " fill="#F0CD65" transform="translate(163,124)"/>
<path d="M0 0 C0.66 0 1.32 0 2 0 C2.33 2.64 2.66 5.28 3 8 C2.01 7.01 1.02 6.02 0 5 C-0.66 5.66 -1.32 6.32 -2 7 C-1.125 1.125 -1.125 1.125 0 0 Z " fill="#CFAE53" transform="translate(164,269)"/>
<path d="M0 0 C-1.49097658 3.7952131 -3.75700849 5.61042731 -7 8 C-7 5 -7 5 -4.625 2.3125 C-2 0 -2 0 0 0 Z " fill="#E1AC43" transform="translate(214,103)"/>
<path d="M0 0 C1.65 0 3.3 0 5 0 C4.1875 1.9375 4.1875 1.9375 3 4 C2.01 4.33 1.02 4.66 0 5 C0 3.35 0 1.7 0 0 Z " fill="#FBEB85" transform="translate(208,101)"/>
<path d="M0 0 C-0.33 0.99 -0.66 1.98 -1 3 C-3.64 3.33 -6.28 3.66 -9 4 C-5.86025155 0.71753571 -4.76763047 0 0 0 Z " fill="#E9CA66" transform="translate(229,60)"/>
<path d="M0 0 C1.70884005 1.62339805 3.37446717 3.29319053 5 5 C5 5.66 5 6.32 5 7 C4.01 7.33 3.02 7.66 2 8 C1.34 5.36 0.68 2.72 0 0 Z " fill="#CA9536" transform="translate(118,115)"/>
<path d="M0 0 C0.33 0.66 0.66 1.32 1 2 C0.06421005 4.35981813 -0.93347808 6.69631264 -2 9 C-2.66 9 -3.32 9 -4 9 C-2.94124926 5.59687262 -1.99097846 2.98646769 0 0 Z " fill="#D4A94A" transform="translate(203,114)"/>
<path d="M0 0 C2.15377564 2.62198774 3.40072174 4.64404172 4 8 C3.01 8 2.02 8 1 8 C-0.35439668 5.29120665 -0.06501451 2.99066732 0 0 Z " fill="#E8D677" transform="translate(206,289)"/>
<path d="M0 0 C1.98 1.65 3.96 3.3 6 5 C4.68 5.33 3.36 5.66 2 6 C0 3 0 3 0 0 Z " fill="#ECC67B" transform="translate(97,215)"/>
<path d="M0 0 C1.45792884 -0.05399736 2.91642712 -0.09279177 4.375 -0.125 C5.18710938 -0.14820313 5.99921875 -0.17140625 6.8359375 -0.1953125 C9 0 9 0 11 2 C6.91556885 3.53166168 3.20544343 2.63081652 -1 2 C-0.67 1.34 -0.34 0.68 0 0 Z " fill="#E5D87C" transform="translate(236,210)"/>
<path d="M0 0 C4 4.75 4 4.75 4 7 C2.68 7 1.36 7 0 7 C0 4.69 0 2.38 0 0 Z " fill="#E6D17F" transform="translate(56,168)"/>
<path d="M0 0 C-0.33 0.66 -0.66 1.32 -1 2 C-3.31 2 -5.62 2 -8 2 C-8 1.34 -8 0.68 -8 0 C-4.71303767 -0.79953138 -3.28976808 -1.09658936 0 0 Z " fill="#E7DA7E" transform="translate(321,136)"/>
<path d="M0 0 C0.66 0 1.32 0 2 0 C2 2.64 2 5.28 2 8 C1.01 7.34 0.02 6.68 -1 6 C-0.67 4.02 -0.34 2.04 0 0 Z " fill="#BA8024" transform="translate(199,123)"/>
</svg>
